<svg viewBox="0 0 330 200" xmlns="http://www.w3.org/2000/svg"><g><g><g><g><g><line x1="49.98400115966797" y1="178.60799980163574" x2="44.98400115966797" y2="178.60799980163574" style="visibility: inherit;" fill="rgb(0, 0, 0)" stroke="rgb(204, 204, 204)" stroke-width="1px"></line><line x1="49.98400115966797" y1="164.8689228938176" x2="44.98400115966797" y2="164.8689228938176" style="visibility: inherit;" fill="rgb(0, 0, 0)" stroke="rgb(204, 204, 204)" stroke-width="1px"></line><line x1="49.98400115966797" y1="151.12984598599948" x2="44.98400115966797" y2="151.12984598599948" style="visibility: inherit;" fill="rgb(0, 0, 0)" stroke="rgb(204, 204, 204)" stroke-width="1px"></line><line x1="49.98400115966797" y1="137.39076907818134" x2="44.98400115966797" y2="137.39076907818134" style="visibility: inherit;" fill="rgb(0, 0, 0)" stroke="rgb(204, 204, 204)" stroke-width="1px"></line><line x1="49.98400115966797" y1="123.6516921703632" x2="44.98400115966797" y2="123.6516921703632" style="visibility: inherit;" fill="rgb(0, 0, 0)" stroke="rgb(204, 204, 204)" stroke-width="1px"></line><line x1="49.98400115966797" y1="109.91261526254507" x2="44.98400115966797" y2="109.91261526254507" style="visibility: inherit;" fill="rgb(0, 0, 0)" stroke="rgb(204, 204, 204)" stroke-width="1px"></line><line x1="49.98400115966797" y1="96.17353835472694" x2="44.98400115966797" y2="96.17353835472694" style="visibility: inherit;" fill="rgb(0, 0, 0)" stroke="rgb(204, 204, 204)" stroke-width="1px"></line><line x1="49.98400115966797" y1="82.43446144690881" x2="44.98400115966797" y2="82.43446144690881" style="visibility: inherit;" fill="rgb(0, 0, 0)" stroke="rgb(204, 204, 204)" stroke-width="1px"></line><line x1="49.98400115966797" y1="68.69538453909068" x2="44.98400115966797" y2="68.69538453909068" style="visibility: inherit;" fill="rgb(0, 0, 0)" stroke="rgb(204, 204, 204)" stroke-width="1px"></line><line x1="49.98400115966797" y1="54.95630763127254" x2="44.98400115966797" y2="54.95630763127254" style="visibility: inherit;" fill="rgb(0, 0, 0)" stroke="rgb(204, 204, 204)" stroke-width="1px"></line><line x1="49.98400115966797" y1="41.217230723454406" x2="44.98400115966797" y2="41.217230723454406" style="visibility: inherit;" fill="rgb(0, 0, 0)" stroke="rgb(204, 204, 204)" stroke-width="1px"></line><line x1="49.98400115966797" y1="27.47815381563626" x2="44.98400115966797" y2="27.47815381563626" style="visibility: inherit;" fill="rgb(0, 0, 0)" stroke="rgb(204, 204, 204)" stroke-width="1px"></line><line x1="49.98400115966797" y1="13.739076907818117" x2="44.98400115966797" y2="13.739076907818117" style="visibility: inherit;" fill="rgb(0, 0, 0)" stroke="rgb(204, 204, 204)" stroke-width="1px"></line><line x1="49.98400115966797" y1="0" x2="44.98400115966797" y2="0" style="visibility: inherit;" fill="rgb(0, 0, 0)" stroke="rgb(204, 204, 204)" stroke-width="1px"></line></g><g transform="translate(39.98400115966797, 0)"><text style="text-anchor: end; visibility: hidden; font-family: &quot;Helvetica Neue&quot;, sans-serif; font-size: 12px; font-weight: 200;" x="0" y="178.60799980163574" dx="0em" dy="0.3em" fill="rgb(50, 49, 63)" stroke="none" stroke-width="1px">-0.1</text><text style="text-anchor: end; visibility: inherit; font-family: &quot;Helvetica Neue&quot;, sans-serif; font-size: 12px; font-weight: 200;" x="0" y="164.8689228938176" dx="0em" dy="0.3em" fill="rgb(50, 49, 63)" stroke="none" stroke-width="1px">0</text><text style="text-anchor: end; visibility: hidden; font-family: &quot;Helvetica Neue&quot;, sans-serif; font-size: 12px; font-weight: 200;" x="0" y="151.12984598599948" dx="0em" dy="0.3em" fill="rgb(50, 49, 63)" stroke="none" stroke-width="1px">0.1</text><text style="text-anchor: end; visibility: inherit; font-family: &quot;Helvetica Neue&quot;, sans-serif; font-size: 12px; font-weight: 200;" x="0" y="137.39076907818134" dx="0em" dy="0.3em" fill="rgb(50, 49, 63)" stroke="none" stroke-width="1px">0.2</text><text style="text-anchor: end; visibility: hidden; font-family: &quot;Helvetica Neue&quot;, sans-serif; font-size: 12px; font-weight: 200;" x="0" y="123.6516921703632" dx="0em" dy="0.3em" fill="rgb(50, 49, 63)" stroke="none" stroke-width="1px">0.3</text><text style="text-anchor: end; visibility: inherit; font-family: &quot;Helvetica Neue&quot;, sans-serif; font-size: 12px; font-weight: 200;" x="0" y="109.91261526254507" dx="0em" dy="0.3em" fill="rgb(50, 49, 63)" stroke="none" stroke-width="1px">0.4</text><text style="text-anchor: end; visibility: hidden; font-family: &quot;Helvetica Neue&quot;, sans-serif; font-size: 12px; font-weight: 200;" x="0" y="96.17353835472694" dx="0em" dy="0.3em" fill="rgb(50, 49, 63)" stroke="none" stroke-width="1px">0.5</text><text style="text-anchor: end; visibility: inherit; font-family: &quot;Helvetica Neue&quot;, sans-serif; font-size: 12px; font-weight: 200;" x="0" y="82.43446144690881" dx="0em" dy="0.3em" fill="rgb(50, 49, 63)" stroke="none" stroke-width="1px">0.6</text><text style="text-anchor: end; visibility: hidden; font-family: &quot;Helvetica Neue&quot;, sans-serif; font-size: 12px; font-weight: 200;" x="0" y="68.69538453909068" dx="0em" dy="0.3em" fill="rgb(50, 49, 63)" stroke="none" stroke-width="1px">0.7</text><text style="text-anchor: end; visibility: inherit; font-family: &quot;Helvetica Neue&quot;, sans-serif; font-size: 12px; font-weight: 200;" x="0" y="54.95630763127254" dx="0em" dy="0.3em" fill="rgb(50, 49, 63)" stroke="none" stroke-width="1px">0.8</text><text style="text-anchor: end; visibility: hidden; font-family: &quot;Helvetica Neue&quot;, sans-serif; font-size: 12px; font-weight: 200;" x="0" y="41.217230723454406" dx="0em" dy="0.3em" fill="rgb(50, 49, 63)" stroke="none" stroke-width="1px">0.9</text><text style="text-anchor: end; visibility: inherit; font-family: &quot;Helvetica Neue&quot;, sans-serif; font-size: 12px; font-weight: 200;" x="0" y="27.47815381563626" dx="0em" dy="0.3em" fill="rgb(50, 49, 63)" stroke="none" stroke-width="1px">1</text><text style="text-anchor: end; visibility: hidden; font-family: &quot;Helvetica Neue&quot;, sans-serif; font-size: 12px; font-weight: 200;" x="0" y="13.739076907818117" dx="0em" dy="0.3em" fill="rgb(50, 49, 63)" stroke="none" stroke-width="1px">1.1</text><text style="text-anchor: end; visibility: hidden; font-family: &quot;Helvetica Neue&quot;, sans-serif; font-size: 12px; font-weight: 200;" x="0" y="0" dx="0em" dy="0.3em" fill="rgb(50, 49, 63)" stroke="none" stroke-width="1px">1.2</text></g><line x1="49.98400115966797" y1="0" x2="49.98400115966797" y2="178.60799980163574" fill="rgb(0, 0, 0)" stroke="rgb(204, 204, 204)" stroke-width="1px"></line></g></g><g transform="translate(49, 0)" clip-path="url(#clip_0)"><clipPath id="clip_0"><rect width="280" height="178"></rect></clipPath><g><g><g><line x1="0" y1="0" x2="0" y2="178.60799980163574" fill="rgb(0, 0, 0)" stroke="rgb(60, 60, 60)" stroke-width="1px" opacity="0.25"></line><line x1="35.001999855041504" y1="0" x2="35.001999855041504" y2="178.60799980163574" fill="rgb(0, 0, 0)" stroke="rgb(60, 60, 60)" stroke-width="1px" opacity="0.25"></line><line x1="70.00399971008301" y1="0" x2="70.00399971008301" y2="178.60799980163574" fill="rgb(0, 0, 0)" stroke="rgb(60, 60, 60)" stroke-width="1px" opacity="0.25"></line><line x1="105.00599956512451" y1="0" x2="105.00599956512451" y2="178.60799980163574" fill="rgb(0, 0, 0)" stroke="rgb(60, 60, 60)" stroke-width="1px" opacity="0.25"></line><line x1="140.00799942016602" y1="0" x2="140.00799942016602" y2="178.60799980163574" fill="rgb(0, 0, 0)" stroke="rgb(60, 60, 60)" stroke-width="1px" opacity="0.25"></line><line x1="175.00999927520752" y1="0" x2="175.00999927520752" y2="178.60799980163574" fill="rgb(0, 0, 0)" stroke="rgb(60, 60, 60)" stroke-width="1px" opacity="0.25"></line><line x1="210.01199913024902" y1="0" x2="210.01199913024902" y2="178.60799980163574" fill="rgb(0, 0, 0)" stroke="rgb(60, 60, 60)" stroke-width="1px" opacity="0.25"></line><line x1="245.01399898529053" y1="0" x2="245.01399898529053" y2="178.60799980163574" fill="rgb(0, 0, 0)" stroke="rgb(60, 60, 60)" stroke-width="1px" opacity="0.25"></line><line x1="280.01599884033203" y1="0" x2="280.01599884033203" y2="178.60799980163574" fill="rgb(0, 0, 0)" stroke="rgb(60, 60, 60)" stroke-width="1px" opacity="0.25"></line></g><g><line x1="0" y1="178.60799980163574" x2="280.01599884033203" y2="178.60799980163574" fill="rgb(0, 0, 0)" stroke="rgb(60, 60, 60)" stroke-width="1px" opacity="0.25"></line><line x1="0" y1="164.8689228938176" x2="280.01599884033203" y2="164.8689228938176" fill="rgb(0, 0, 0)" stroke="rgb(60, 60, 60)" stroke-width="1px" opacity="0.25"></line><line x1="0" y1="151.12984598599948" x2="280.01599884033203" y2="151.12984598599948" fill="rgb(0, 0, 0)" stroke="rgb(60, 60, 60)" stroke-width="1px" opacity="0.25"></line><line x1="0" y1="137.39076907818134" x2="280.01599884033203" y2="137.39076907818134" fill="rgb(0, 0, 0)" stroke="rgb(60, 60, 60)" stroke-width="1px" opacity="0.25"></line><line x1="0" y1="123.6516921703632" x2="280.01599884033203" y2="123.6516921703632" fill="rgb(0, 0, 0)" stroke="rgb(60, 60, 60)" stroke-width="1px" opacity="0.25"></line><line x1="0" y1="109.91261526254507" x2="280.01599884033203" y2="109.91261526254507" fill="rgb(0, 0, 0)" stroke="rgb(60, 60, 60)" stroke-width="1px" opacity="0.25"></line><line x1="0" y1="96.17353835472694" x2="280.01599884033203" y2="96.17353835472694" fill="rgb(0, 0, 0)" stroke="rgb(60, 60, 60)" stroke-width="1px" opacity="0.25"></line><line x1="0" y1="82.43446144690881" x2="280.01599884033203" y2="82.43446144690881" fill="rgb(0, 0, 0)" stroke="rgb(60, 60, 60)" stroke-width="1px" opacity="0.25"></line><line x1="0" y1="68.69538453909068" x2="280.01599884033203" y2="68.69538453909068" fill="rgb(0, 0, 0)" stroke="rgb(60, 60, 60)" stroke-width="1px" opacity="0.25"></line><line x1="0" y1="54.95630763127254" x2="280.01599884033203" y2="54.95630763127254" fill="rgb(0, 0, 0)" stroke="rgb(60, 60, 60)" stroke-width="1px" opacity="0.25"></line><line x1="0" y1="41.217230723454406" x2="280.01599884033203" y2="41.217230723454406" fill="rgb(0, 0, 0)" stroke="rgb(60, 60, 60)" stroke-width="1px" opacity="0.25"></line><line x1="0" y1="27.47815381563626" x2="280.01599884033203" y2="27.47815381563626" fill="rgb(0, 0, 0)" stroke="rgb(60, 60, 60)" stroke-width="1px" opacity="0.25"></line><line x1="0" y1="13.739076907818117" x2="280.01599884033203" y2="13.739076907818117" fill="rgb(0, 0, 0)" stroke="rgb(60, 60, 60)" stroke-width="1px" opacity="0.25"></line><line x1="0" y1="0" x2="280.01599884033203" y2="0" fill="rgb(0, 0, 0)" stroke="rgb(60, 60, 60)" stroke-width="1px" opacity="0.25"></line></g></g></g><g><g><line x1="0" y1="164.8689228938176" x2="280.01599884033203" y2="164.8689228938176" fill="rgb(0, 0, 0)" stroke="rgb(153, 153, 153)" stroke-width="1.5px"></line></g></g><g><g><line x1="35.001999855041504" y1="0" x2="35.001999855041504" y2="178.60799980163574" fill="rgb(0, 0, 0)" stroke="rgb(153, 153, 153)" stroke-width="1.5px"></line></g></g><g><g><g><g><g><path style="fill: none;" stroke="rgb(0, 119, 187)" stroke-width="2px" d="M35.43952485322952,162.59934420303546L36.31457484960556,162.26843715163338L37.1896248459816,161.93694534531102L38.06467484235763,161.9378223497363L38.939724838733675,161.9375301002313L39.81477483510971,161.936360846301L40.68982483148575,161.93168357466956L41.564874827861786,161.93226832958985L42.43992482423782,161.9264218040281L43.31497482061386,161.92437554567252L44.1900248169899,161.91765227159576L45.06507481336594,161.9088827391634L45.940124809741974,161.89602043410963L46.81517480611801,161.87848136924492L47.69022480249405,161.84866449833646L48.565274798870085,161.8261559123353L49.44032479524613,161.77909222606718L50.31537479162216,161.74342908550722L51.1904247879982,161.66041000917414L52.06547478437424,161.62328510926864L52.94052478075027,161.47975579851385L53.815574777126315,161.4133987826202L54.69062477350235,161.25700716681163L55.565674769878385,161.1780806071897L56.44072476625443,160.94656269896538L57.31577476263046,160.8536045803594L58.1908247590065,160.54725237331405L59.06587475538254,160.43850894278367L59.94092475175857,160.15495782715476L60.815974748134614,159.9950584495553L61.69102474451065,159.67847495073207L62.56607474088669,159.52237584033878L63.441124737262726,159.10260318704186L64.31617473363876,158.9643353910183L65.19122473001481,158.5547940294993L66.06627472639083,158.41184921775454L66.94132472276688,157.95904418126332L67.81637471914291,157.76114315524336L68.69142471551895,157.21771876391696L69.566474711895,157.0502188519052L70.44152470827103,156.51965650972235L71.31657470464707,156.31824746600122L72.1916247010231,155.71051231713676L73.06667469739914,155.48250242661356L73.94172469377517,154.90546166490333L74.81677469015122,154.62863331153068L75.69182468652726,153.953080411068L76.56687468290329,153.6505279594083L77.44192467927932,153.0194072201174L78.31697467565536,152.64172873195216L79.19202467203141,152.02902431786148L80.06707466840744,151.63088426978146L80.94212466478348,150.7977694759389L81.81717466115951,150.4078134376402L82.69222465753555,149.6162093335603L83.5672746539116,149.1464492193939L84.44232465028763,148.19962224161526L85.31737464666367,147.73600192615658L86.1924246430397,146.81928432470167L87.06747463941574,146.3287698892949L87.94252463579178,145.24133558399112L88.81757463216782,144.71252878612032L89.69262462854385,143.69963601831205L90.56767462491989,143.11236294118288L91.44272462129592,142.03399195327796L92.31777461767197,141.3946872042057L93.192824614048,140.18711020221457L94.06787461042404,139.57645102283846L94.94292460680008,138.32911785175574L95.81797460317611,137.67929007322107L96.69302459955216,136.3623841180485L97.5680745959282,135.69063199661247L98.44312459230423,134.34946370249844L99.31817458868026,133.5987847655302L100.1932245850563,132.14653504484573L101.06827458143235,131.53704486348968L101.94332457780838,130.08625690215075L102.81837457418442,129.37328685227754L103.69342457056045,127.9645930560703L104.56847456693649,127.25747004357933L105.44352456331254,125.70436916446127L106.31857455968857,124.9873045505949L107.1936245560646,123.5394421552291L108.06867455244064,122.75894455598066L108.94372454881668,121.32131038146976L109.81877454519272,120.48264131157049L110.69382454156876,119.09908813828125L111.5688745379448,118.25164851230863L112.44392453432083,116.64300896718734L113.31897453069686,115.8923279829371L114.19402452707291,114.33952191242658L115.06907452344895,113.50932858999313L115.94412451982498,111.94716644075822L116.81917451620102,111.08569883854501L117.69422451257705,109.6898660678403L118.5692745089531,108.74654813140381L119.44432450532913,107.33317834311639L120.31937450170517,106.39921239084028L121.1944244980812,104.8800185961496L122.06947449445724,104.0013046903972L122.94452449083329,102.75952579537119L123.81957448720932,101.64666015310587L124.69462448358536,100.4531152219193L125.56967447996139,99.42209991387728L126.44472447633743,97.97832798794063L127.31977447271348,97.04202403962442L128.19482446908953,95.7204420923717L129.06987446546555,94.77624382467667L129.94492446184157,93.51283334807479L130.81997445821762,92.4356354527539L131.69502445459366,91.08598526932805L132.5700744509697,90.06110771271177L133.44512444734573,88.82108538563882L134.32017444372175,87.77223825140659L135.1952244400978,86.44042398873496L136.07027443647385,85.41174667673302L136.9453244328499,84.21761622289542L137.82037442922592,83.21495577050605L138.69542442560194,82.27309959341513L139.570474421978,81.12866076819853L140.44552441835404,79.9661075918762L141.32057441473006,78.87925471465942L142.1956244111061,77.81228504019346L143.07067440748216,76.7087754766525L143.94572440385818,75.5245866241903L144.82077440023423,74.47485506413555L145.69582439661025,73.67594830517388L146.5708743929863,72.46807649457521L147.44592438936235,71.41630584165186L148.32097438573837,70.289997745797L149.19602438211442,69.38993887794825L150.07107437849044,68.2466710980337L150.94612437486649,67.16713111210872L151.82117437124253,66.13903522819383L152.69622436761856,65.36702156553923L153.5712743639946,64.25561768261946L154.44632436037062,63.11732070339262L155.32137435674667,62.22573758300972L156.19642435312272,61.5598304516739L157.07147434949874,60.62236364718363L157.9465243458748,59.63753092642048L158.8215743422508,58.670828935019046L159.69662433862686,57.99059901883514L160.5716743350029,57.00576629807199L161.44672433137893,56.13786613582552L162.32177432775498,55.2857546123367L163.196824324131,54.568108570383316L164.07187432050705,53.66746827444754L164.9469243168831,52.94689052467503L165.82197431325912,52.14827038519286L166.69702430963517,51.435013715840114L167.5720743060112,50.68871391506258L168.44712430238724,49.78632114573773L169.3221742987633,48.95730296317032L170.1972242951393,48.53285227051123L171.07227429151536,47.69330286935343L171.94732428789138,47.05838339831786L172.82237428426743,46.35623118651458L173.69742428064347,45.589180135419696L174.5724742770195,45.0036656735256L175.44752427339554,44.531562445114105L176.32257426977156,43.934648717063055L177.1976242661476,43.381571391122776L178.07267426252366,42.738176172621365L178.94772425889968,42.36838790927098L179.82277425527573,41.68085329092327L180.69782425165175,41.25757364356622L181.5728742480278,40.54109045778688L182.44792424440385,40.00877257129193L183.32297424077987,39.43904674815548L184.19802423715592,39.15051920181335L185.07307423353194,38.60534438437989L185.948124229908,38.26186778924955L186.82317422628404,37.734815512049835L187.69822422266006,37.175604529247806L188.5732742190361,36.7850650155801L189.44832421541213,36.33664474530502L190.32337421178818,35.87214921679282L191.19842420816423,35.5386060339099L192.07347420454025,35.137543490779734L192.9485242009163,34.90251551757228L193.82357419729232,34.49940569244552L194.69862419366837,34.068231725709666L195.57367419004441,33.730602167961564L196.44872418642043,33.4239602705137L197.32377418279648,33.09217775014787L198.1988241791725,32.62943469502471L199.07387417554855,32.38300745566028L199.9489241719246,32.14300868176514L200.82397416830062,31.83490093040774L201.69902416467667,31.637878700184785L202.5740741610527,31.377423484579793L203.44912415742874,31.00880626653145L204.3241741538048,30.742209204936728L205.1992241501808,30.472107196563826L206.07427414655686,30.259582947062768L206.94932414293288,30.024849782462837L207.82437413930893,29.839226818396867L208.69942413568498,29.569419618631485L209.574474132061,29.407471423573952L210.44952412843705,29.199336546673578L211.32457412481307,29.067499775221762L212.19962412118912,28.845631730688325L213.07467411756517,28.722270706702375L213.9497241139412,28.536942551243897L214.82477411031724,28.443979570343174L215.69982410669326,28.268003399045085L216.5748741030693,28.202817940273945L217.44992409944535,28.06162918466177L218.32497409582137,27.973342195841212L219.20002409219742,27.841218804909886L220.07507408857344,27.790356130986822L220.9501240849495,27.70265875938128L221.82517408132554,27.661148069618633L222.70022407770156,27.59216285546185L223.5752740740776,27.572279652711046L224.45032407045363,27.529606106774338L225.32537406682968,27.521998406875014L226.20042406320573,27.503875866641295L227.07547405958175,27.49949468316862L227.9505240559578,27.495105310567936L228.82557405233382,27.491895172397307L229.70062404870987,27.48341942493147L230.57567404508592,27.48458228110553L231.45072404146194,27.482248379629425L232.325774037838,27.482829807716456L233.200824034214,27.482248379629425L234.07587403059006,27.48341942493147L234.9509240269661,27.48049590624035L235.82597402334213,27.48078252571986L236.70102401971818,27.481658762414412L237.5760740160942,27.48341942493147L238.45112401247025,27.482829807716456L239.3261740088463,27.48370604441098L240.20122400522231,27.482248379629425L241.07627400159836,27.48370604441098L241.95132399797438,27.48107733432738L242.82637399435043,27.481953571021904L243.70142399072648,27.48107733432738L244.5764739871025,27.48341942493147L245.45152398347855,27.482829807716456L246.32657397985457,27.484295661625993L247.20162397623062,27.482829807716456L248.07667397260667,27.48312461632395L248.9517239689827,27.482829807716456L249.82677396535874,27.481953571021904L250.70182396173476,27.479906289025337L251.5768739581108,27.481372142934873L252.45192395448686,27.482829807716456L253.32697395086288,27.482248379629425L254.20202394723893,27.48341942493147L255.07707394361495,27.482829807716456L255.952123939991,27.482248379629425L256.82717393636705,27.481658762414412L257.70222393274304,27.48341942493147L258.57727392911914,27.48341942493147L259.45232392549514,27.48458228110553" fill="none"></path></g></g></g></g></g></g><g transform="translate(49, 178)" clip-path="url(#clip_1)"><clipPath id="clip_1"><rect width="280" height="21"></rect></clipPath><g><g><line x1="0" y1="0" x2="0" y2="5" style="visibility: inherit;" fill="rgb(0, 0, 0)" stroke="rgb(204, 204, 204)" stroke-width="1px"></line><line x1="35.001999855041504" y1="0" x2="35.001999855041504" y2="5" style="visibility: inherit;" fill="rgb(0, 0, 0)" stroke="rgb(204, 204, 204)" stroke-width="1px"></line><line x1="70.00399971008301" y1="0" x2="70.00399971008301" y2="5" style="visibility: inherit;" fill="rgb(0, 0, 0)" stroke="rgb(204, 204, 204)" stroke-width="1px"></line><line x1="105.00599956512451" y1="0" x2="105.00599956512451" y2="5" style="visibility: inherit;" fill="rgb(0, 0, 0)" stroke="rgb(204, 204, 204)" stroke-width="1px"></line><line x1="140.00799942016602" y1="0" x2="140.00799942016602" y2="5" style="visibility: inherit;" fill="rgb(0, 0, 0)" stroke="rgb(204, 204, 204)" stroke-width="1px"></line><line x1="175.00999927520752" y1="0" x2="175.00999927520752" y2="5" style="visibility: inherit;" fill="rgb(0, 0, 0)" stroke="rgb(204, 204, 204)" stroke-width="1px"></line><line x1="210.01199913024902" y1="0" x2="210.01199913024902" y2="5" style="visibility: inherit;" fill="rgb(0, 0, 0)" stroke="rgb(204, 204, 204)" stroke-width="1px"></line><line x1="245.01399898529053" y1="0" x2="245.01399898529053" y2="5" style="visibility: inherit;" fill="rgb(0, 0, 0)" stroke="rgb(204, 204, 204)" stroke-width="1px"></line><line x1="280.01599884033203" y1="0" x2="280.01599884033203" y2="5" style="visibility: inherit;" fill="rgb(0, 0, 0)" stroke="rgb(204, 204, 204)" stroke-width="1px"></line></g><g transform="translate(0, 8)"><text style="text-anchor: middle; visibility: hidden; font-family: &quot;Helvetica Neue&quot;, sans-serif; font-size: 12px; font-weight: 200;" x="0" y="0" dx="0em" dy="0.95em" fill="rgb(50, 49, 63)" stroke="none" stroke-width="1px">-200k</text><text style="text-anchor: middle; visibility: hidden; font-family: &quot;Helvetica Neue&quot;, sans-serif; font-size: 12px; font-weight: 200;" x="35.001999855041504" y="0" dx="0em" dy="0.95em" fill="rgb(50, 49, 63)" stroke="none" stroke-width="1px">0</text><text style="text-anchor: middle; visibility: hidden; font-family: &quot;Helvetica Neue&quot;, sans-serif; font-size: 12px; font-weight: 200;" x="70.00399971008301" y="0" dx="0em" dy="0.95em" fill="rgb(50, 49, 63)" stroke="none" stroke-width="1px">200k</text><text style="text-anchor: middle; visibility: hidden; font-family: &quot;Helvetica Neue&quot;, sans-serif; font-size: 12px; font-weight: 200;" x="105.00599956512451" y="0" dx="0em" dy="0.95em" fill="rgb(50, 49, 63)" stroke="none" stroke-width="1px">400k</text><text style="text-anchor: middle; visibility: hidden; font-family: &quot;Helvetica Neue&quot;, sans-serif; font-size: 12px; font-weight: 200;" x="140.00799942016602" y="0" dx="0em" dy="0.95em" fill="rgb(50, 49, 63)" stroke="none" stroke-width="1px">600k</text><text style="text-anchor: middle; visibility: hidden; font-family: &quot;Helvetica Neue&quot;, sans-serif; font-size: 12px; font-weight: 200;" x="175.00999927520752" y="0" dx="0em" dy="0.95em" fill="rgb(50, 49, 63)" stroke="none" stroke-width="1px">800k</text><text style="text-anchor: middle; visibility: hidden; font-family: &quot;Helvetica Neue&quot;, sans-serif; font-size: 12px; font-weight: 200;" x="210.01199913024902" y="0" dx="0em" dy="0.95em" fill="rgb(50, 49, 63)" stroke="none" stroke-width="1px">1M</text><text style="text-anchor: middle; visibility: hidden; font-family: &quot;Helvetica Neue&quot;, sans-serif; font-size: 12px; font-weight: 200;" x="245.01399898529053" y="0" dx="0em" dy="0.95em" fill="rgb(50, 49, 63)" stroke="none" stroke-width="1px">1.2M</text><text style="text-anchor: middle; visibility: hidden; font-family: &quot;Helvetica Neue&quot;, sans-serif; font-size: 12px; font-weight: 200;" x="280.01599884033203" y="0" dx="0em" dy="0.95em" fill="rgb(50, 49, 63)" stroke="none" stroke-width="1px">1.4M</text></g><line x1="0" y1="0" x2="280.01599884033203" y2="0" fill="rgb(0, 0, 0)" stroke="rgb(204, 204, 204)" stroke-width="1px"></line></g></g></g></g></svg>