<svg viewBox="0 0 330 200" xmlns="http://www.w3.org/2000/svg"><g><g><g><g><g><line x1="59.98000144958496" y1="178.60799980163574" x2="54.98000144958496" y2="178.60799980163574" style="visibility: inherit;" fill="rgb(0, 0, 0)" stroke="rgb(204, 204, 204)" stroke-width="1px"></line><line x1="59.98000144958496" y1="162.37090891057795" x2="54.98000144958496" y2="162.37090891057795" style="visibility: inherit;" fill="rgb(0, 0, 0)" stroke="rgb(204, 204, 204)" stroke-width="1px"></line><line x1="59.98000144958496" y1="146.13381801952016" x2="54.98000144958496" y2="146.13381801952016" style="visibility: inherit;" fill="rgb(0, 0, 0)" stroke="rgb(204, 204, 204)" stroke-width="1px"></line><line x1="59.98000144958496" y1="129.89672712846235" x2="54.98000144958496" y2="129.89672712846235" style="visibility: inherit;" fill="rgb(0, 0, 0)" stroke="rgb(204, 204, 204)" stroke-width="1px"></line><line x1="59.98000144958496" y1="113.65963623740456" x2="54.98000144958496" y2="113.65963623740456" style="visibility: inherit;" fill="rgb(0, 0, 0)" stroke="rgb(204, 204, 204)" stroke-width="1px"></line><line x1="59.98000144958496" y1="97.42254534634677" x2="54.98000144958496" y2="97.42254534634677" style="visibility: inherit;" fill="rgb(0, 0, 0)" stroke="rgb(204, 204, 204)" stroke-width="1px"></line><line x1="59.98000144958496" y1="81.18545445528898" x2="54.98000144958496" y2="81.18545445528898" style="visibility: inherit;" fill="rgb(0, 0, 0)" stroke="rgb(204, 204, 204)" stroke-width="1px"></line><line x1="59.98000144958496" y1="64.94836356423119" x2="54.98000144958496" y2="64.94836356423119" style="visibility: inherit;" fill="rgb(0, 0, 0)" stroke="rgb(204, 204, 204)" stroke-width="1px"></line><line x1="59.98000144958496" y1="48.7112726731734" x2="54.98000144958496" y2="48.7112726731734" style="visibility: inherit;" fill="rgb(0, 0, 0)" stroke="rgb(204, 204, 204)" stroke-width="1px"></line><line x1="59.98000144958496" y1="32.47418178211558" x2="54.98000144958496" y2="32.47418178211558" style="visibility: inherit;" fill="rgb(0, 0, 0)" stroke="rgb(204, 204, 204)" stroke-width="1px"></line><line x1="59.98000144958496" y1="16.23709089105779" x2="54.98000144958496" y2="16.23709089105779" style="visibility: inherit;" fill="rgb(0, 0, 0)" stroke="rgb(204, 204, 204)" stroke-width="1px"></line><line x1="59.98000144958496" y1="0" x2="54.98000144958496" y2="0" style="visibility: inherit;" fill="rgb(0, 0, 0)" stroke="rgb(204, 204, 204)" stroke-width="1px"></line></g><g transform="translate(49.98000144958496, 0)"><text style="text-anchor: end; visibility: hidden; font-family: &quot;Helvetica Neue&quot;, sans-serif; font-size: 12px; font-weight: 200;" x="0" y="178.60799980163574" dx="0em" dy="0.3em" fill="rgb(50, 49, 63)" stroke="none" stroke-width="1px">-1e-5</text><text style="text-anchor: end; visibility: inherit; font-family: &quot;Helvetica Neue&quot;, sans-serif; font-size: 12px; font-weight: 200;" x="0" y="162.37090891057795" dx="0em" dy="0.3em" fill="rgb(50, 49, 63)" stroke="none" stroke-width="1px">0</text><text style="text-anchor: end; visibility: hidden; font-family: &quot;Helvetica Neue&quot;, sans-serif; font-size: 12px; font-weight: 200;" x="0" y="146.13381801952016" dx="0em" dy="0.3em" fill="rgb(50, 49, 63)" stroke="none" stroke-width="1px">1e-5</text><text style="text-anchor: end; visibility: inherit; font-family: &quot;Helvetica Neue&quot;, sans-serif; font-size: 12px; font-weight: 200;" x="0" y="129.89672712846235" dx="0em" dy="0.3em" fill="rgb(50, 49, 63)" stroke="none" stroke-width="1px">2e-5</text><text style="text-anchor: end; visibility: hidden; font-family: &quot;Helvetica Neue&quot;, sans-serif; font-size: 12px; font-weight: 200;" x="0" y="113.65963623740456" dx="0em" dy="0.3em" fill="rgb(50, 49, 63)" stroke="none" stroke-width="1px">3e-5</text><text style="text-anchor: end; visibility: inherit; font-family: &quot;Helvetica Neue&quot;, sans-serif; font-size: 12px; font-weight: 200;" x="0" y="97.42254534634677" dx="0em" dy="0.3em" fill="rgb(50, 49, 63)" stroke="none" stroke-width="1px">4e-5</text><text style="text-anchor: end; visibility: hidden; font-family: &quot;Helvetica Neue&quot;, sans-serif; font-size: 12px; font-weight: 200;" x="0" y="81.18545445528898" dx="0em" dy="0.3em" fill="rgb(50, 49, 63)" stroke="none" stroke-width="1px">5e-5</text><text style="text-anchor: end; visibility: inherit; font-family: &quot;Helvetica Neue&quot;, sans-serif; font-size: 12px; font-weight: 200;" x="0" y="64.94836356423119" dx="0em" dy="0.3em" fill="rgb(50, 49, 63)" stroke="none" stroke-width="1px">6e-5</text><text style="text-anchor: end; visibility: hidden; font-family: &quot;Helvetica Neue&quot;, sans-serif; font-size: 12px; font-weight: 200;" x="0" y="48.7112726731734" dx="0em" dy="0.3em" fill="rgb(50, 49, 63)" stroke="none" stroke-width="1px">7e-5</text><text style="text-anchor: end; visibility: inherit; font-family: &quot;Helvetica Neue&quot;, sans-serif; font-size: 12px; font-weight: 200;" x="0" y="32.47418178211558" dx="0em" dy="0.3em" fill="rgb(50, 49, 63)" stroke="none" stroke-width="1px">8e-5</text><text style="text-anchor: end; visibility: hidden; font-family: &quot;Helvetica Neue&quot;, sans-serif; font-size: 12px; font-weight: 200;" x="0" y="16.23709089105779" dx="0em" dy="0.3em" fill="rgb(50, 49, 63)" stroke="none" stroke-width="1px">9e-5</text><text style="text-anchor: end; visibility: hidden; font-family: &quot;Helvetica Neue&quot;, sans-serif; font-size: 12px; font-weight: 200;" x="0" y="0" dx="0em" dy="0.3em" fill="rgb(50, 49, 63)" stroke="none" stroke-width="1px">1e-4</text></g><line x1="59.98000144958496" y1="0" x2="59.98000144958496" y2="178.60799980163574" fill="rgb(0, 0, 0)" stroke="rgb(204, 204, 204)" stroke-width="1px"></line></g></g><g transform="translate(59, 0)" clip-path="url(#clip_0)"><clipPath id="clip_0"><rect width="270" height="178"></rect></clipPath><g><g><g><line x1="0" y1="0" x2="0" y2="178.60799980163574" fill="rgb(0, 0, 0)" stroke="rgb(60, 60, 60)" stroke-width="1px" opacity="0.25"></line><line x1="33.75249981880188" y1="0" x2="33.75249981880188" y2="178.60799980163574" fill="rgb(0, 0, 0)" stroke="rgb(60, 60, 60)" stroke-width="1px" opacity="0.25"></line><line x1="67.50499963760376" y1="0" x2="67.50499963760376" y2="178.60799980163574" fill="rgb(0, 0, 0)" stroke="rgb(60, 60, 60)" stroke-width="1px" opacity="0.25"></line><line x1="101.25749945640564" y1="0" x2="101.25749945640564" y2="178.60799980163574" fill="rgb(0, 0, 0)" stroke="rgb(60, 60, 60)" stroke-width="1px" opacity="0.25"></line><line x1="135.00999927520752" y1="0" x2="135.00999927520752" y2="178.60799980163574" fill="rgb(0, 0, 0)" stroke="rgb(60, 60, 60)" stroke-width="1px" opacity="0.25"></line><line x1="168.7624990940094" y1="0" x2="168.7624990940094" y2="178.60799980163574" fill="rgb(0, 0, 0)" stroke="rgb(60, 60, 60)" stroke-width="1px" opacity="0.25"></line><line x1="202.51499891281128" y1="0" x2="202.51499891281128" y2="178.60799980163574" fill="rgb(0, 0, 0)" stroke="rgb(60, 60, 60)" stroke-width="1px" opacity="0.25"></line><line x1="236.26749873161316" y1="0" x2="236.26749873161316" y2="178.60799980163574" fill="rgb(0, 0, 0)" stroke="rgb(60, 60, 60)" stroke-width="1px" opacity="0.25"></line><line x1="270.01999855041504" y1="0" x2="270.01999855041504" y2="178.60799980163574" fill="rgb(0, 0, 0)" stroke="rgb(60, 60, 60)" stroke-width="1px" opacity="0.25"></line></g><g><line x1="0" y1="178.60799980163574" x2="270.01999855041504" y2="178.60799980163574" fill="rgb(0, 0, 0)" stroke="rgb(60, 60, 60)" stroke-width="1px" opacity="0.25"></line><line x1="0" y1="162.37090891057795" x2="270.01999855041504" y2="162.37090891057795" fill="rgb(0, 0, 0)" stroke="rgb(60, 60, 60)" stroke-width="1px" opacity="0.25"></line><line x1="0" y1="146.13381801952016" x2="270.01999855041504" y2="146.13381801952016" fill="rgb(0, 0, 0)" stroke="rgb(60, 60, 60)" stroke-width="1px" opacity="0.25"></line><line x1="0" y1="129.89672712846235" x2="270.01999855041504" y2="129.89672712846235" fill="rgb(0, 0, 0)" stroke="rgb(60, 60, 60)" stroke-width="1px" opacity="0.25"></line><line x1="0" y1="113.65963623740456" x2="270.01999855041504" y2="113.65963623740456" fill="rgb(0, 0, 0)" stroke="rgb(60, 60, 60)" stroke-width="1px" opacity="0.25"></line><line x1="0" y1="97.42254534634677" x2="270.01999855041504" y2="97.42254534634677" fill="rgb(0, 0, 0)" stroke="rgb(60, 60, 60)" stroke-width="1px" opacity="0.25"></line><line x1="0" y1="81.18545445528898" x2="270.01999855041504" y2="81.18545445528898" fill="rgb(0, 0, 0)" stroke="rgb(60, 60, 60)" stroke-width="1px" opacity="0.25"></line><line x1="0" y1="64.94836356423119" x2="270.01999855041504" y2="64.94836356423119" fill="rgb(0, 0, 0)" stroke="rgb(60, 60, 60)" stroke-width="1px" opacity="0.25"></line><line x1="0" y1="48.7112726731734" x2="270.01999855041504" y2="48.7112726731734" fill="rgb(0, 0, 0)" stroke="rgb(60, 60, 60)" stroke-width="1px" opacity="0.25"></line><line x1="0" y1="32.47418178211558" x2="270.01999855041504" y2="32.47418178211558" fill="rgb(0, 0, 0)" stroke="rgb(60, 60, 60)" stroke-width="1px" opacity="0.25"></line><line x1="0" y1="16.23709089105779" x2="270.01999855041504" y2="16.23709089105779" fill="rgb(0, 0, 0)" stroke="rgb(60, 60, 60)" stroke-width="1px" opacity="0.25"></line><line x1="0" y1="0" x2="270.01999855041504" y2="0" fill="rgb(0, 0, 0)" stroke="rgb(60, 60, 60)" stroke-width="1px" opacity="0.25"></line></g></g></g><g><g><line x1="0" y1="162.37090891057795" x2="270.01999855041504" y2="162.37090891057795" fill="rgb(0, 0, 0)" stroke="rgb(153, 153, 153)" stroke-width="1.5px"></line></g></g><g><g><line x1="33.75249981880188" y1="0" x2="33.75249981880188" y2="178.60799980163574" fill="rgb(0, 0, 0)" stroke="rgb(153, 153, 153)" stroke-width="1.5px"></line></g></g><g><g><g><g><g><path style="fill: none;" stroke="rgb(0, 119, 187)" stroke-width="2px" d="M34.1744060665369,159.1241405126834L35.01821856200695,152.62930454184686L35.862031057477,146.13446820182162L36.705843552947044,139.6396326001738L37.54965604841709,133.14479699852598L38.39346854388714,126.64996139687815L39.237281039357185,120.1551228417207L40.08109353482723,113.66028724007288L40.92490603029728,107.16545459193468L41.768718525767326,100.67061012975796L42.61253102123737,94.17578338863903L43.45634351670742,87.68094483348158L44.30015601217747,81.18610627832413L45.143968507647514,74.69127363018592L45.98778100311756,68.19643507502846L46.83159349858761,61.70160833390953L47.675405994057655,55.20676977875206L48.5192184895277,48.71191940955609L49.36303098499775,42.217092668437175L50.206843480467796,35.72226592731823L51.05065597593784,32.62040741822241L51.89446847140789,32.91341920134985L52.73828096687794,33.207151640826424L53.582093462347984,33.501640178767644L54.42590595781803,33.796873001135L55.26971845328808,34.092861921967L56.113530948758125,34.38961875530214L56.95734344422817,34.68713168710195L57.80115593969822,34.985436159481935L58.644968435168266,35.28450854436505L59.48878093063831,35.58437246982834L60.33259342610836,35.88501612183333L61.17640592157841,36.18647494249552L62.020218417048454,36.48873711777637L62.8640309125185,36.79180264767592L63.70784340798855,37.09569516027116L64.5516559034586,37.4004028415236L65.39546839892864,37.70593750547175L66.23928089439869,38.01231096615413L67.08309338986874,38.31954685164774L67.92690588533878,38.62762153387558L68.77071838080883,38.936558640914654L69.61453087627888,39.24635817276493L70.45834337174892,39.55704375750349L71.30215586721897,39.86859176705329L72.14596836268902,40.18103764352986L72.98978085815907,40.4943932009717L73.83359335362911,40.80864662534029L74.67740584909916,41.12379791663568L75.5212183445692,41.43988251697334L76.36503084003925,41.75688861231481L77.2088433355093,42.07483983073709L78.05265583097935,42.39372435820164L78.8964683264494,42.71357763682403L79.74028082191944,43.03438785256574L80.58409331738949,43.356155005426785L81.42790581285954,43.67890272348413L82.27171830832958,44.00264282077637L83.11553080379963,44.327398925380464L83.95934329926968,44.65315922325789L84.80315579473972,44.97991190037018L85.64696829020977,45.30770421287136L86.49078078567982,45.63652434672292L87.33459328114986,45.96639593000188L88.17840577661991,46.29733077674675L89.02221827208996,46.62932888695752L89.86603076756,46.962402074672696L90.70984326303005,47.29655033989232L91.5536557585001,47.63180912473189L92.39746825397015,47.96816661515288L93.2412807494402,48.30565825327085L94.08509324491024,48.644272225047274L94.92890574038029,48.98403215855919L95.77271823585033,49.324926239768075L96.61653073132038,49.66700172482797L97.46034322679043,50.01025861373887L98.30415572226048,50.35469690650078L99.14796821773052,50.70035204522921L99.99178071320057,51.04720040184718L100.83559320867062,51.39528923250873L101.67940570414066,51.74461853721381L102.52321819961071,52.09520013000096L103.36703069508076,52.447057638947214L104.2108431905508,52.800191064052555L105.05465568602085,53.1546122193555L105.8984681814909,53.51034473293305L106.74228067696095,53.867412232862264L107.58609317243099,54.22580290510459L108.42990566790104,54.58557581985261L109.27371816337109,54.94669553499078L110.11753065884113,55.30920930667314L110.96134315431118,55.6731289489382L111.80515564978123,56.03846627582446L112.64896814525127,56.40524491540897L113.49278064072132,56.773464867691715L114.33659313619137,57.143161574788195L115.18040563166142,57.51433503669847L116.02421812713146,57.88702069553801L116.86803062260151,58.261230365345355L117.71184311807156,58.63699948823607L118.5556556135416,59.01431625017156L119.39946810901165,59.39321609326744L120.2432806044817,59.77371083156217L121.08709309995174,60.155835907171266L121.93090559542179,60.539591320094786L122.77471809089184,60.925036140525236L123.61853058636189,61.312158554424144L124.46234308183193,61.70098218986848L125.30615557730198,62.091542488973815L126.14996807277203,62.483863079817155L126.99378056824207,62.877955776437005L127.83759306371212,63.273850113929655L128.68140555918217,63.671581534410606L129.5252180546522,64.07116775893765L130.36903055012226,64.47262650856855L131.2128430455923,64.87600503945734L132.05665554106236,65.28130335160401L132.9004680365324,65.68857460818187L133.74428053200245,66.09783062322944L134.5880930274725,66.50910093184297L135.43190552294254,66.92245051123429L136.2757180184126,67.33785573332635L137.11953051388264,67.75538157533099L137.96334300935268,68.17506347936369L138.80715550482273,68.59691325946304L139.65096800029278,69.02098407880224L140.49478049576283,69.44730547247764L141.33859299123287,69.87590697558548L142.18240548670292,70.30682993726057L143.02621798217297,70.7401275206762L143.870030477643,71.17580563285158L144.71384297311306,71.61394106503708L145.5576554685831,72.05455153829044L146.40146796405315,72.49769021578497L147.2452804595232,72.94340435367468L148.08909295499325,73.39172348705588L148.9329054504633,73.84271259314038L149.77671794593334,74.29639530000516L150.6205304414034,74.75285430591981L151.46434293687344,75.21210733194211L152.30815543234348,75.67422526230311L153.15196792781353,76.13925535315683L153.99578042328358,76.60726848873436L154.83959291875362,77.07830011115122L155.68340541422367,77.55242701165774L156.52721790969372,78.02970826044645L157.37103040516376,78.51018520665212L158.2148429006338,78.99395236258287L159.05865539610386,79.48108061246975L159.9024678915739,79.97162311948605L160.74628038704395,80.46565076786281L161.590092882514,80.96324625586963L162.43390537798405,81.46448046773756L163.2777178734541,81.96945382279392L164.12153036892414,82.4782372052698L164.9653428643942,82.99091331343479L165.80915535986423,83.50758256661615L166.65296785533428,84.02833357010275L167.49678035080433,84.5532726502412L168.34059284627438,85.0824884123203L169.18440534174442,85.6161049037444L170.02821783721447,86.1542166368216L170.87203033268452,86.69695947299478L171.71584282815456,87.24443973861047L172.5596553236246,87.79678148107308L173.40346781909466,88.35412646884471L174.2472803145647,88.91661056336825L175.09109281003475,89.48436962608655L175.9349053055048,90.05756314651948L176.77871780097485,90.63635652120621L177.6225302964449,91.22090333264734L178.46634279191494,91.81139260545908L179.310155287385,92.40799564319975L180.15396778285503,93.01091328452411L180.99778027832508,93.62034636808677L181.84159277379513,94.23651936061944L182.68540526926517,94.8596567288538L183.52921776473522,95.49000066057935L184.37303026020527,96.12780515762401L185.21684275567532,96.77333603585427L186.06065525114536,97.42688864623291L186.9044677466154,98.0887760607804L187.74828024208546,98.7593113515173L188.5920927375555,99.43884893959887L189.43590523302555,100.12776096723822L190.2797177284956,100.82644911174467L191.12353022396564,101.5353386785046L191.9673427194357,102.25489041501989L192.81115521490574,102.9856064179272L193.6549677103758,103.72800650492103L194.49878020584583,104.48269319196534L195.34259270131588,105.25028080906269L196.18640519678593,106.03146638448516L197.03021769225597,106.82698238862037L197.87403018772602,107.63765580416404L198.71784268319607,108.46439631208145L199.56165517866611,109.30819038458817L200.40546767413616,110.17013672726567L201.2492801696062,111.0514758141575L202.09309266507626,111.9535544456538L202.9369051605463,112.87792912132828L203.78071765601635,113.82633059782268L204.6245301514864,114.8007465871163L205.46834264695644,115.80342766354535L206.3121551424265,116.83699949716866L207.15596763789654,117.90449829588336L207.99978013336658,119.00951552739649L208.84359262883663,120.15630719908134L209.68740512430668,121.34999469663201L210.53121761977673,122.59687194906478L211.37503011524677,123.90474212881554L212.21884261071682,125.28356447034835L213.06265510618687,126.74632555549539L213.9064676016569,128.31055741740568L214.75028009712696,130.00090414041125L215.594092592597,131.85402468600893L216.43790508806705,133.92886815285453L217.2817175835371,136.33231614734888L218.12553007900715,139.30433541970908L218.9693425744772,143.8693581680161L219.81315506994724,149.3812362305275L220.6569675654173,149.3812362305275L221.50078006088734,149.3812362305275L222.34459255635738,149.3812362305275L223.18840505182743,149.3812362305275L224.03221754729748,149.3812362305275L224.87603004276752,149.3812362305275L225.71984253823757,149.3812362305275L226.56365503370762,149.3812362305275L227.40746752917767,149.3812362305275L228.2512800246477,149.3812362305275L229.09509252011776,149.3812362305275L229.9389050155878,149.3812362305275L230.78271751105785,149.3812362305275L231.6265300065279,149.3812362305275L232.47034250199795,149.3812362305275L233.314154997468,149.3812362305275L234.15796749293804,149.3812362305275L235.0017799884081,149.3812362305275L235.84559248387814,149.3812362305275L236.68940497934818,149.3812362305275L237.53321747481823,149.3812362305275L238.37702997028828,149.3812362305275L239.22084246575832,149.3812362305275L240.06465496122837,149.3812362305275L240.90846745669842,149.3812362305275L241.75227995216846,149.3812362305275L242.5960924476385,149.3812362305275L243.43990494310856,149.3812362305275L244.2837174385786,149.3812362305275L245.12752993404865,149.3812362305275L245.9713424295187,149.3812362305275L246.81515492498875,149.3812362305275L247.6589674204588,149.3812362305275L248.50277991592884,149.3812362305275L249.3465924113989,149.3812362305275L250.19040490686893,149.3812362305275" fill="none"></path></g></g></g></g></g></g><g transform="translate(59, 178)" clip-path="url(#clip_1)"><clipPath id="clip_1"><rect width="270" height="21"></rect></clipPath><g><g><line x1="0" y1="0" x2="0" y2="5" style="visibility: inherit;" fill="rgb(0, 0, 0)" stroke="rgb(204, 204, 204)" stroke-width="1px"></line><line x1="33.75249981880188" y1="0" x2="33.75249981880188" y2="5" style="visibility: inherit;" fill="rgb(0, 0, 0)" stroke="rgb(204, 204, 204)" stroke-width="1px"></line><line x1="67.50499963760376" y1="0" x2="67.50499963760376" y2="5" style="visibility: inherit;" fill="rgb(0, 0, 0)" stroke="rgb(204, 204, 204)" stroke-width="1px"></line><line x1="101.25749945640564" y1="0" x2="101.25749945640564" y2="5" style="visibility: inherit;" fill="rgb(0, 0, 0)" stroke="rgb(204, 204, 204)" stroke-width="1px"></line><line x1="135.00999927520752" y1="0" x2="135.00999927520752" y2="5" style="visibility: inherit;" fill="rgb(0, 0, 0)" stroke="rgb(204, 204, 204)" stroke-width="1px"></line><line x1="168.7624990940094" y1="0" x2="168.7624990940094" y2="5" style="visibility: inherit;" fill="rgb(0, 0, 0)" stroke="rgb(204, 204, 204)" stroke-width="1px"></line><line x1="202.51499891281128" y1="0" x2="202.51499891281128" y2="5" style="visibility: inherit;" fill="rgb(0, 0, 0)" stroke="rgb(204, 204, 204)" stroke-width="1px"></line><line x1="236.26749873161316" y1="0" x2="236.26749873161316" y2="5" style="visibility: inherit;" fill="rgb(0, 0, 0)" stroke="rgb(204, 204, 204)" stroke-width="1px"></line><line x1="270.01999855041504" y1="0" x2="270.01999855041504" y2="5" style="visibility: inherit;" fill="rgb(0, 0, 0)" stroke="rgb(204, 204, 204)" stroke-width="1px"></line></g><g transform="translate(0, 8)"><text style="text-anchor: middle; visibility: hidden; font-family: &quot;Helvetica Neue&quot;, sans-serif; font-size: 12px; font-weight: 200;" x="0" y="0" dx="0em" dy="0.95em" fill="rgb(50, 49, 63)" stroke="none" stroke-width="1px">-200k</text><text style="text-anchor: middle; visibility: inherit; font-family: &quot;Helvetica Neue&quot;, sans-serif; font-size: 12px; font-weight: 200;" x="33.75249981880188" y="0" dx="0em" dy="0.95em" fill="rgb(50, 49, 63)" stroke="none" stroke-width="1px">0</text><text style="text-anchor: middle; visibility: inherit; font-family: &quot;Helvetica Neue&quot;, sans-serif; font-size: 12px; font-weight: 200;" x="67.50499963760376" y="0" dx="0em" dy="0.95em" fill="rgb(50, 49, 63)" stroke="none" stroke-width="1px">200k</text><text style="text-anchor: middle; visibility: inherit; font-family: &quot;Helvetica Neue&quot;, sans-serif; font-size: 12px; font-weight: 200;" x="101.25749945640564" y="0" dx="0em" dy="0.95em" fill="rgb(50, 49, 63)" stroke="none" stroke-width="1px">400k</text><text style="text-anchor: middle; visibility: inherit; font-family: &quot;Helvetica Neue&quot;, sans-serif; font-size: 12px; font-weight: 200;" x="135.00999927520752" y="0" dx="0em" dy="0.95em" fill="rgb(50, 49, 63)" stroke="none" stroke-width="1px">600k</text><text style="text-anchor: middle; visibility: inherit; font-family: &quot;Helvetica Neue&quot;, sans-serif; font-size: 12px; font-weight: 200;" x="168.7624990940094" y="0" dx="0em" dy="0.95em" fill="rgb(50, 49, 63)" stroke="none" stroke-width="1px">800k</text><text style="text-anchor: middle; visibility: inherit; font-family: &quot;Helvetica Neue&quot;, sans-serif; font-size: 12px; font-weight: 200;" x="202.51499891281128" y="0" dx="0em" dy="0.95em" fill="rgb(50, 49, 63)" stroke="none" stroke-width="1px">1M</text><text style="text-anchor: middle; visibility: inherit; font-family: &quot;Helvetica Neue&quot;, sans-serif; font-size: 12px; font-weight: 200;" x="236.26749873161316" y="0" dx="0em" dy="0.95em" fill="rgb(50, 49, 63)" stroke="none" stroke-width="1px">1.2M</text><text style="text-anchor: middle; visibility: hidden; font-family: &quot;Helvetica Neue&quot;, sans-serif; font-size: 12px; font-weight: 200;" x="270.01999855041504" y="0" dx="0em" dy="0.95em" fill="rgb(50, 49, 63)" stroke="none" stroke-width="1px">1.4M</text></g><line x1="0" y1="0" x2="270.01999855041504" y2="0" fill="rgb(0, 0, 0)" stroke="rgb(204, 204, 204)" stroke-width="1px"></line></g></g></g></g></svg>