<svg viewBox="0 0 330 200" xmlns="http://www.w3.org/2000/svg"><g><g><g><g><g><line x1="69.97600173950195" y1="178.60799980163574" x2="64.97600173950195" y2="178.60799980163574" style="visibility: inherit;" fill="rgb(0, 0, 0)" stroke="rgb(204, 204, 204)" stroke-width="1px"></line><line x1="69.97600173950195" y1="162.37090891057795" x2="64.97600173950195" y2="162.37090891057795" style="visibility: inherit;" fill="rgb(0, 0, 0)" stroke="rgb(204, 204, 204)" stroke-width="1px"></line><line x1="69.97600173950195" y1="146.13381801952016" x2="64.97600173950195" y2="146.13381801952016" style="visibility: inherit;" fill="rgb(0, 0, 0)" stroke="rgb(204, 204, 204)" stroke-width="1px"></line><line x1="69.97600173950195" y1="129.89672712846237" x2="64.97600173950195" y2="129.89672712846237" style="visibility: inherit;" fill="rgb(0, 0, 0)" stroke="rgb(204, 204, 204)" stroke-width="1px"></line><line x1="69.97600173950195" y1="113.65963623740456" x2="64.97600173950195" y2="113.65963623740456" style="visibility: inherit;" fill="rgb(0, 0, 0)" stroke="rgb(204, 204, 204)" stroke-width="1px"></line><line x1="69.97600173950195" y1="97.42254534634677" x2="64.97600173950195" y2="97.42254534634677" style="visibility: inherit;" fill="rgb(0, 0, 0)" stroke="rgb(204, 204, 204)" stroke-width="1px"></line><line x1="69.97600173950195" y1="81.18545445528898" x2="64.97600173950195" y2="81.18545445528898" style="visibility: inherit;" fill="rgb(0, 0, 0)" stroke="rgb(204, 204, 204)" stroke-width="1px"></line><line x1="69.97600173950195" y1="64.94836356423119" x2="64.97600173950195" y2="64.94836356423119" style="visibility: inherit;" fill="rgb(0, 0, 0)" stroke="rgb(204, 204, 204)" stroke-width="1px"></line><line x1="69.97600173950195" y1="48.71127267317337" x2="64.97600173950195" y2="48.71127267317337" style="visibility: inherit;" fill="rgb(0, 0, 0)" stroke="rgb(204, 204, 204)" stroke-width="1px"></line><line x1="69.97600173950195" y1="32.47418178211558" x2="64.97600173950195" y2="32.47418178211558" style="visibility: inherit;" fill="rgb(0, 0, 0)" stroke="rgb(204, 204, 204)" stroke-width="1px"></line><line x1="69.97600173950195" y1="16.23709089105779" x2="64.97600173950195" y2="16.23709089105779" style="visibility: inherit;" fill="rgb(0, 0, 0)" stroke="rgb(204, 204, 204)" stroke-width="1px"></line><line x1="69.97600173950195" y1="0" x2="64.97600173950195" y2="0" style="visibility: inherit;" fill="rgb(0, 0, 0)" stroke="rgb(204, 204, 204)" stroke-width="1px"></line></g><g transform="translate(59.97600173950195, 0)"><text style="text-anchor: end; visibility: hidden; font-family: &quot;Helvetica Neue&quot;, sans-serif; font-size: 12px; font-weight: 200;" x="0" y="178.60799980163574" dx="0em" dy="0.3em" fill="rgb(50, 49, 63)" stroke="none" stroke-width="1px">-2e+3</text><text style="text-anchor: end; visibility: inherit; font-family: &quot;Helvetica Neue&quot;, sans-serif; font-size: 12px; font-weight: 200;" x="0" y="162.37090891057795" dx="0em" dy="0.3em" fill="rgb(50, 49, 63)" stroke="none" stroke-width="1px">0</text><text style="text-anchor: end; visibility: hidden; font-family: &quot;Helvetica Neue&quot;, sans-serif; font-size: 12px; font-weight: 200;" x="0" y="146.13381801952016" dx="0em" dy="0.3em" fill="rgb(50, 49, 63)" stroke="none" stroke-width="1px">2e+3</text><text style="text-anchor: end; visibility: inherit; font-family: &quot;Helvetica Neue&quot;, sans-serif; font-size: 12px; font-weight: 200;" x="0" y="129.89672712846237" dx="0em" dy="0.3em" fill="rgb(50, 49, 63)" stroke="none" stroke-width="1px">4e+3</text><text style="text-anchor: end; visibility: hidden; font-family: &quot;Helvetica Neue&quot;, sans-serif; font-size: 12px; font-weight: 200;" x="0" y="113.65963623740456" dx="0em" dy="0.3em" fill="rgb(50, 49, 63)" stroke="none" stroke-width="1px">6e+3</text><text style="text-anchor: end; visibility: inherit; font-family: &quot;Helvetica Neue&quot;, sans-serif; font-size: 12px; font-weight: 200;" x="0" y="97.42254534634677" dx="0em" dy="0.3em" fill="rgb(50, 49, 63)" stroke="none" stroke-width="1px">8e+3</text><text style="text-anchor: end; visibility: hidden; font-family: &quot;Helvetica Neue&quot;, sans-serif; font-size: 12px; font-weight: 200;" x="0" y="81.18545445528898" dx="0em" dy="0.3em" fill="rgb(50, 49, 63)" stroke="none" stroke-width="1px">1e+4</text><text style="text-anchor: end; visibility: inherit; font-family: &quot;Helvetica Neue&quot;, sans-serif; font-size: 12px; font-weight: 200;" x="0" y="64.94836356423119" dx="0em" dy="0.3em" fill="rgb(50, 49, 63)" stroke="none" stroke-width="1px">1.2e+4</text><text style="text-anchor: end; visibility: hidden; font-family: &quot;Helvetica Neue&quot;, sans-serif; font-size: 12px; font-weight: 200;" x="0" y="48.71127267317337" dx="0em" dy="0.3em" fill="rgb(50, 49, 63)" stroke="none" stroke-width="1px">1.4e+4</text><text style="text-anchor: end; visibility: inherit; font-family: &quot;Helvetica Neue&quot;, sans-serif; font-size: 12px; font-weight: 200;" x="0" y="32.47418178211558" dx="0em" dy="0.3em" fill="rgb(50, 49, 63)" stroke="none" stroke-width="1px">1.6e+4</text><text style="text-anchor: end; visibility: hidden; font-family: &quot;Helvetica Neue&quot;, sans-serif; font-size: 12px; font-weight: 200;" x="0" y="16.23709089105779" dx="0em" dy="0.3em" fill="rgb(50, 49, 63)" stroke="none" stroke-width="1px">1.8e+4</text><text style="text-anchor: end; visibility: hidden; font-family: &quot;Helvetica Neue&quot;, sans-serif; font-size: 12px; font-weight: 200;" x="0" y="0" dx="0em" dy="0.3em" fill="rgb(50, 49, 63)" stroke="none" stroke-width="1px">2e+4</text></g><line x1="69.97600173950195" y1="0" x2="69.97600173950195" y2="178.60799980163574" fill="rgb(0, 0, 0)" stroke="rgb(204, 204, 204)" stroke-width="1px"></line></g></g><g transform="translate(69, 0)" clip-path="url(#clip_0)"><clipPath id="clip_0"><rect width="260" height="178"></rect></clipPath><g><g><g><line x1="0" y1="0" x2="0" y2="178.60799980163574" fill="rgb(0, 0, 0)" stroke="rgb(60, 60, 60)" stroke-width="1px" opacity="0.25"></line><line x1="32.502999782562256" y1="0" x2="32.502999782562256" y2="178.60799980163574" fill="rgb(0, 0, 0)" stroke="rgb(60, 60, 60)" stroke-width="1px" opacity="0.25"></line><line x1="65.00599956512451" y1="0" x2="65.00599956512451" y2="178.60799980163574" fill="rgb(0, 0, 0)" stroke="rgb(60, 60, 60)" stroke-width="1px" opacity="0.25"></line><line x1="97.50899934768677" y1="0" x2="97.50899934768677" y2="178.60799980163574" fill="rgb(0, 0, 0)" stroke="rgb(60, 60, 60)" stroke-width="1px" opacity="0.25"></line><line x1="130.01199913024902" y1="0" x2="130.01199913024902" y2="178.60799980163574" fill="rgb(0, 0, 0)" stroke="rgb(60, 60, 60)" stroke-width="1px" opacity="0.25"></line><line x1="162.51499891281128" y1="0" x2="162.51499891281128" y2="178.60799980163574" fill="rgb(0, 0, 0)" stroke="rgb(60, 60, 60)" stroke-width="1px" opacity="0.25"></line><line x1="195.01799869537354" y1="0" x2="195.01799869537354" y2="178.60799980163574" fill="rgb(0, 0, 0)" stroke="rgb(60, 60, 60)" stroke-width="1px" opacity="0.25"></line><line x1="227.5209984779358" y1="0" x2="227.5209984779358" y2="178.60799980163574" fill="rgb(0, 0, 0)" stroke="rgb(60, 60, 60)" stroke-width="1px" opacity="0.25"></line><line x1="260.02399826049805" y1="0" x2="260.02399826049805" y2="178.60799980163574" fill="rgb(0, 0, 0)" stroke="rgb(60, 60, 60)" stroke-width="1px" opacity="0.25"></line></g><g><line x1="0" y1="178.60799980163574" x2="260.02399826049805" y2="178.60799980163574" fill="rgb(0, 0, 0)" stroke="rgb(60, 60, 60)" stroke-width="1px" opacity="0.25"></line><line x1="0" y1="162.37090891057795" x2="260.02399826049805" y2="162.37090891057795" fill="rgb(0, 0, 0)" stroke="rgb(60, 60, 60)" stroke-width="1px" opacity="0.25"></line><line x1="0" y1="146.13381801952016" x2="260.02399826049805" y2="146.13381801952016" fill="rgb(0, 0, 0)" stroke="rgb(60, 60, 60)" stroke-width="1px" opacity="0.25"></line><line x1="0" y1="129.89672712846237" x2="260.02399826049805" y2="129.89672712846237" fill="rgb(0, 0, 0)" stroke="rgb(60, 60, 60)" stroke-width="1px" opacity="0.25"></line><line x1="0" y1="113.65963623740456" x2="260.02399826049805" y2="113.65963623740456" fill="rgb(0, 0, 0)" stroke="rgb(60, 60, 60)" stroke-width="1px" opacity="0.25"></line><line x1="0" y1="97.42254534634677" x2="260.02399826049805" y2="97.42254534634677" fill="rgb(0, 0, 0)" stroke="rgb(60, 60, 60)" stroke-width="1px" opacity="0.25"></line><line x1="0" y1="81.18545445528898" x2="260.02399826049805" y2="81.18545445528898" fill="rgb(0, 0, 0)" stroke="rgb(60, 60, 60)" stroke-width="1px" opacity="0.25"></line><line x1="0" y1="64.94836356423119" x2="260.02399826049805" y2="64.94836356423119" fill="rgb(0, 0, 0)" stroke="rgb(60, 60, 60)" stroke-width="1px" opacity="0.25"></line><line x1="0" y1="48.71127267317337" x2="260.02399826049805" y2="48.71127267317337" fill="rgb(0, 0, 0)" stroke="rgb(60, 60, 60)" stroke-width="1px" opacity="0.25"></line><line x1="0" y1="32.47418178211558" x2="260.02399826049805" y2="32.47418178211558" fill="rgb(0, 0, 0)" stroke="rgb(60, 60, 60)" stroke-width="1px" opacity="0.25"></line><line x1="0" y1="16.23709089105779" x2="260.02399826049805" y2="16.23709089105779" fill="rgb(0, 0, 0)" stroke="rgb(60, 60, 60)" stroke-width="1px" opacity="0.25"></line><line x1="0" y1="0" x2="260.02399826049805" y2="0" fill="rgb(0, 0, 0)" stroke="rgb(60, 60, 60)" stroke-width="1px" opacity="0.25"></line></g></g></g><g><g><line x1="0" y1="162.37090891057795" x2="260.02399826049805" y2="162.37090891057795" fill="rgb(0, 0, 0)" stroke="rgb(153, 153, 153)" stroke-width="1.5px"></line></g></g><g><g><line x1="32.502999782562256" y1="0" x2="32.502999782562256" y2="178.60799980163574" fill="rgb(0, 0, 0)" stroke="rgb(153, 153, 153)" stroke-width="1.5px"></line></g></g><g><g><g><g><g><path style="fill: none;" stroke="rgb(0, 119, 187)" stroke-width="2px" d="M32.909287279844285,31.57047826394313L33.721862274408345,45.652571035235184L34.5344372689724,53.96428870711205L35.34701226353645,54.18455975019127L36.15958725810051,54.345844486517834L36.97216225266457,54.59887512899249L37.78473724722863,55.27932657567996L38.59731224179268,56.15172136732471L39.40988723635673,57.77556523697011L40.22246223092079,59.72812298622202L41.03503722548485,63.297698367200795L41.84761222004891,67.89594261138369L42.66018721461296,73.6778454110702L43.47276220917701,79.19107509741873L44.28533720374107,85.13957457234635L45.09791219830513,90.1209047514731L45.91048719286919,95.65548526095132L46.72306218743324,100.23616046538103L47.535637181997295,105.49109513994256L48.348212176561354,109.74613263237595L49.16078717112541,114.37591155869713L49.97336216568947,118.30693663387675L50.785937160253525,122.33322776576873L51.59851215481758,125.60957222626351L52.411087149381636,128.963411532908L53.223662143945695,131.54913059804053L54.036237138509755,134.31767153690467L54.84881213307381,136.36888864116065L55.66138712763786,138.60784909091126L56.47396212220192,140.28967237739568L57.28653711676598,142.07216879871146L58.09911211133004,143.48136673074015L58.91168710589409,144.91658919931663L59.72426210045814,146.08786578377573L60.5368370950222,147.26698540640083L61.34941208958626,148.26276980000372L62.16198708415032,149.23863838681052L62.97456207871437,150.10402657246163L63.78713707327842,150.8861015549915L64.59971206784249,151.65798475024573L65.41228706240655,152.29586041191303L66.2248620569706,152.97226051414475L67.03743705153465,153.51410206823047L67.85001204609871,154.10571728277228L68.66258704066276,154.5723835043332L69.47516203522683,155.1030620584313L70.28773702979088,155.5076385522114L71.10031202435493,155.98223948252593L71.912887018919,156.33668653486663L72.72546201348304,156.74293886609158L73.53803700804711,157.06254465342306L74.35061200261116,157.41076702510662L75.16318699717522,157.69880691274838L75.97576199173928,158.00857124310392L76.78833698630332,158.26277551685837L77.6009119808674,158.54993660565077L78.41348697543144,158.76806577783836L79.2260619699955,159.02581646454163L80.03863696455956,159.21126556776252L80.8512119591236,159.44961058210185L81.66378695368768,159.6054352200236L82.47636194825172,159.8211316530227L83.28893694281578,159.9489189656027L84.10151193737984,160.1461789568831L84.91408693194388,160.2560258399509L85.72666192650796,160.42868194103312L86.539236921072,160.5255077604058L87.35181191563606,160.6754926102592L88.16438691020012,160.7608378034461L88.97696190476417,160.8924168097364L89.78953689932824,160.96592881661277L90.60211189389229,161.08389399736777L91.41468688845634,161.14545661926982L92.2272618830204,161.25009450701538L93.03983687758445,161.3036708864281L93.85241187214852,161.39223377917975L94.66498686671257,161.44132480345607L95.47756186127663,161.51673847950866L96.29013685584069,161.5580717564292L97.10271185040473,161.62535449911903L97.9152868449688,161.66140364799924L98.72786183953285,161.71730313353285L99.54043683409691,161.74914615093135L100.35301182866097,161.7992585589845L101.16558682322501,161.82738241392818L101.97816181778909,161.8712951958868L102.79073681235313,161.89405786994487L103.60331180691719,161.93120505283986L104.41588680148125,161.9524217457956L105.2284617960453,161.984129301319L106.04103679060937,162.00387204891118L106.85361178517341,162.0306926949607L107.66618677973747,162.046485307381L108.47876177430153,162.0709744854655L109.29133676886558,162.0838937824205L110.10391176342965,162.10610674265084L110.9164867579937,162.11660924986074L111.72906175255775,162.13638420603772L112.54163674712181,162.14633977121636L113.35421174168586,162.16303584992625L114.16678673624993,162.17103223502284L114.97936173081398,162.18693427920712L115.79193672537804,162.19316896310744L116.6045117199421,162.20744526348722L117.41708671450614,162.2125390047244L118.22966170907021,162.22450469529477L119.04223670363426,162.22927240203495L119.85481169819832,162.24043668726898L120.66738669276238,162.24422762221934L121.47996168732642,162.25403907720818L122.2925366818905,162.25720864197197L123.10511167645454,162.2660703308306L123.9176866710186,162.26853921176766L124.73026166558266,162.2766666919985L125.5428366601467,162.27877923449606L126.35541165471078,162.28592607945535L127.16798664927482,162.28748900103454L127.98056164383888,162.2939631124054L128.79313663840293,162.29519131246064L129.605711632967,162.3013992074899L130.41828662753105,162.30214551756433L131.2308616220951,162.30778339419527L132.04343661665916,162.30850667435726L132.85601161122324,162.31348585058728L133.66858660578728,162.3141112739455L134.48116160035133,162.3185169709028L135.29373659491537,162.3187756538422L136.10631158947945,162.3231535050843L136.91888658404352,162.3231163026203L137.73146157860756,162.3271139686821L138.5440365731716,162.32708757854715L139.35661156773565,162.33071869388016L140.16918656229973,162.33059026214812L140.9817615568638,162.3337381441855L141.79433655142785,162.33361445470305L142.6069115459919,162.33655688700418L143.41948654055594,162.33658185252864L144.23206153512,162.33900718219417L145.04463652968408,162.3388458353789L145.85721152424813,162.34126996883614L146.66978651881217,162.34115009057385L147.48236151337622,162.34323887730446L148.2949365079403,162.34318459112836L149.10751150250437,162.3450559505552L149.9200864970684,162.3449591002697L150.73266149163246,162.34663757014698L151.5452364861965,162.34654520467464L152.35781148076057,162.34805111473594L153.17038647532465,162.3480430606541L153.9829614698887,162.34937561729845L154.79553646445274,162.3492971998467L155.60811145901678,162.3505582898222L156.42068645358086,162.35053340946467L157.23326144814493,162.35170287917848L158.04583644270897,162.35156676693776L158.85841143727302,162.3526188804918L159.67098643183706,162.3525319444113L160.48356142640114,162.35346107885252L161.2961364209652,162.35351632702782L162.10871141552926,162.35421714054053L162.9212864100933,162.35425333648624L163.73386140465735,162.3549609575466L164.54643639922142,162.35493145785085L165.3590113937855,162.3556012918924L166.17158638834954,162.35556861779287L166.98416138291358,162.35619903696585L167.79673637747763,162.3561743946886L168.6093113720417,162.3567559551417L169.42188636660578,162.3567483220555L170.23446136116982,162.35727864976056L171.04703635573387,162.35722719538492L171.8596113502979,162.35770671714437L172.67218634486198,162.35768432114492L173.48476133942606,162.358111050053L174.2973363339901,162.35814267021175L175.10991132855415,162.35846022672789L175.9224863231182,162.35849470675348L176.73506131768227,162.3588852832671L177.54763631224634,162.35884355630992L178.36021130681038,162.35918307911962L179.17278630137443,162.35915874266908L179.98536129593847,162.35945886319166L180.79793629050255,162.3594767656677L181.61051128506662,162.3597505067012L182.42308627963067,162.35975297751L183.2356612741947,162.36000187012357L184.04823626875876,162.3600196748512L184.86081126332283,162.36024775092477L185.6733862578869,162.36025347065842L186.48596125245095,162.36048902884045L187.298536247015,162.3604719083517L188.11111124157904,162.360672228716L188.9236862361431,162.3606951928176L189.73626123070719,162.36089148226975L190.54883622527123,162.3609062926055L191.36141121983528,162.36107764266396L192.17398621439932,162.36109265139993L192.9865612089634,162.36124922306024L193.79913620352747,162.36126465666308L194.6117111980915,162.36140270258025L195.42428619265556,162.361423605255L196.2368611872196,162.36156120017458L197.04943618178368,162.36158533338585L197.86201117634775,162.36170341056112L198.6745861709118,162.36172050588692L199.48716116547584,162.36183660970568L200.29973616003988,162.3618604264444L201.11231115460396,162.36195993045405L201.92488614916803,162.36199205096852L202.73746114373208,162.3620900819774L203.55003613829612,162.36211794511314L204.36261113286017,162.3622026455617L205.17518612742424,162.3622305474097L205.9877611219883,162.3623084441818L206.80033611655236,162.36233963463468L207.6129111111164,162.3624014261466L208.42548610568045,162.36243222173462L209.23806110024452,162.3624850155538L210.0506360948086,162.36251463912873L210.86321108937264,162.36255117767777L211.67578608393669,162.36254576570641L212.48836107850073,162.36259952346043L213.3009360730648,162.36262111134184L214.11351106762888,162.3626488989887L214.92608606219292,162.36265570750416L215.73866105675697,162.3626716695291L216.551236051321,162.36267368740468L217.3638110458851,162.3626810814428L218.17638604044916,162.36268611016294L218.9889610350132,162.36269334548086L219.80153602957725,162.36269424941167L220.6141110241413,162.36269789900825L221.42668601870537,162.36269985784767L222.23926101326944,162.3627045149303L223.0518360078335,162.36270561242233L223.86441100239753,162.3627087481139L224.67698599696158,162.36271159443146L225.48956099152565,162.36271579858087L226.30213598608972,162.36271727835629L227.11471098065377,162.3627182103535L227.9272859752178,162.36271992240236L228.73986096978186,162.36272285872587L229.55243596434593,162.36272427946514L230.36501095891,162.36272579117818L231.17758595347405,162.3627270154528L231.9901609480381,162.36273213998575L232.80273594260214,162.36273291229497L233.6153109371662,162.362733011979L234.4278859317303,162.36273490500758L235.24046092629433,162.36273766712603L236.05303592085838,162.36273811812364L236.86561091542242,162.36273767680407L237.6781859099865,162.36273968984062L238.49076090455057,162.36274284488832L239.30333589911461,162.3627430994213L240.11591089367866,162.3627408860489L240.9284858882427,162.3627429116669" fill="none"></path></g></g></g></g></g></g><g transform="translate(69, 178)" clip-path="url(#clip_1)"><clipPath id="clip_1"><rect width="260" height="21"></rect></clipPath><g><g><line x1="0" y1="0" x2="0" y2="5" style="visibility: inherit;" fill="rgb(0, 0, 0)" stroke="rgb(204, 204, 204)" stroke-width="1px"></line><line x1="32.502999782562256" y1="0" x2="32.502999782562256" y2="5" style="visibility: inherit;" fill="rgb(0, 0, 0)" stroke="rgb(204, 204, 204)" stroke-width="1px"></line><line x1="65.00599956512451" y1="0" x2="65.00599956512451" y2="5" style="visibility: inherit;" fill="rgb(0, 0, 0)" stroke="rgb(204, 204, 204)" stroke-width="1px"></line><line x1="97.50899934768677" y1="0" x2="97.50899934768677" y2="5" style="visibility: inherit;" fill="rgb(0, 0, 0)" stroke="rgb(204, 204, 204)" stroke-width="1px"></line><line x1="130.01199913024902" y1="0" x2="130.01199913024902" y2="5" style="visibility: inherit;" fill="rgb(0, 0, 0)" stroke="rgb(204, 204, 204)" stroke-width="1px"></line><line x1="162.51499891281128" y1="0" x2="162.51499891281128" y2="5" style="visibility: inherit;" fill="rgb(0, 0, 0)" stroke="rgb(204, 204, 204)" stroke-width="1px"></line><line x1="195.01799869537354" y1="0" x2="195.01799869537354" y2="5" style="visibility: inherit;" fill="rgb(0, 0, 0)" stroke="rgb(204, 204, 204)" stroke-width="1px"></line><line x1="227.5209984779358" y1="0" x2="227.5209984779358" y2="5" style="visibility: inherit;" fill="rgb(0, 0, 0)" stroke="rgb(204, 204, 204)" stroke-width="1px"></line><line x1="260.02399826049805" y1="0" x2="260.02399826049805" y2="5" style="visibility: inherit;" fill="rgb(0, 0, 0)" stroke="rgb(204, 204, 204)" stroke-width="1px"></line></g><g transform="translate(0, 8)"><text style="text-anchor: middle; visibility: hidden; font-family: &quot;Helvetica Neue&quot;, sans-serif; font-size: 12px; font-weight: 200;" x="0" y="0" dx="0em" dy="0.95em" fill="rgb(50, 49, 63)" stroke="none" stroke-width="1px">-200k</text><text style="text-anchor: middle; visibility: hidden; font-family: &quot;Helvetica Neue&quot;, sans-serif; font-size: 12px; font-weight: 200;" x="32.502999782562256" y="0" dx="0em" dy="0.95em" fill="rgb(50, 49, 63)" stroke="none" stroke-width="1px">0</text><text style="text-anchor: middle; visibility: hidden; font-family: &quot;Helvetica Neue&quot;, sans-serif; font-size: 12px; font-weight: 200;" x="65.00599956512451" y="0" dx="0em" dy="0.95em" fill="rgb(50, 49, 63)" stroke="none" stroke-width="1px">200k</text><text style="text-anchor: middle; visibility: hidden; font-family: &quot;Helvetica Neue&quot;, sans-serif; font-size: 12px; font-weight: 200;" x="97.50899934768677" y="0" dx="0em" dy="0.95em" fill="rgb(50, 49, 63)" stroke="none" stroke-width="1px">400k</text><text style="text-anchor: middle; visibility: hidden; font-family: &quot;Helvetica Neue&quot;, sans-serif; font-size: 12px; font-weight: 200;" x="130.01199913024902" y="0" dx="0em" dy="0.95em" fill="rgb(50, 49, 63)" stroke="none" stroke-width="1px">600k</text><text style="text-anchor: middle; visibility: hidden; font-family: &quot;Helvetica Neue&quot;, sans-serif; font-size: 12px; font-weight: 200;" x="162.51499891281128" y="0" dx="0em" dy="0.95em" fill="rgb(50, 49, 63)" stroke="none" stroke-width="1px">800k</text><text style="text-anchor: middle; visibility: hidden; font-family: &quot;Helvetica Neue&quot;, sans-serif; font-size: 12px; font-weight: 200;" x="195.01799869537354" y="0" dx="0em" dy="0.95em" fill="rgb(50, 49, 63)" stroke="none" stroke-width="1px">1M</text><text style="text-anchor: middle; visibility: hidden; font-family: &quot;Helvetica Neue&quot;, sans-serif; font-size: 12px; font-weight: 200;" x="227.5209984779358" y="0" dx="0em" dy="0.95em" fill="rgb(50, 49, 63)" stroke="none" stroke-width="1px">1.2M</text><text style="text-anchor: middle; visibility: hidden; font-family: &quot;Helvetica Neue&quot;, sans-serif; font-size: 12px; font-weight: 200;" x="260.02399826049805" y="0" dx="0em" dy="0.95em" fill="rgb(50, 49, 63)" stroke="none" stroke-width="1px">1.4M</text></g><line x1="0" y1="0" x2="260.02399826049805" y2="0" fill="rgb(0, 0, 0)" stroke="rgb(204, 204, 204)" stroke-width="1px"></line></g></g></g></g></svg>