<svg viewBox="0 0 330 200" xmlns="http://www.w3.org/2000/svg"><g><g><g><g><g><line x1="49.98400115966797" y1="178.60799980163574" x2="44.98400115966797" y2="178.60799980163574" style="visibility: inherit;" fill="rgb(0, 0, 0)" stroke="rgb(204, 204, 204)" stroke-width="1px"></line><line x1="49.98400115966797" y1="164.8689228938176" x2="44.98400115966797" y2="164.8689228938176" style="visibility: inherit;" fill="rgb(0, 0, 0)" stroke="rgb(204, 204, 204)" stroke-width="1px"></line><line x1="49.98400115966797" y1="151.12984598599948" x2="44.98400115966797" y2="151.12984598599948" style="visibility: inherit;" fill="rgb(0, 0, 0)" stroke="rgb(204, 204, 204)" stroke-width="1px"></line><line x1="49.98400115966797" y1="137.39076907818134" x2="44.98400115966797" y2="137.39076907818134" style="visibility: inherit;" fill="rgb(0, 0, 0)" stroke="rgb(204, 204, 204)" stroke-width="1px"></line><line x1="49.98400115966797" y1="123.6516921703632" x2="44.98400115966797" y2="123.6516921703632" style="visibility: inherit;" fill="rgb(0, 0, 0)" stroke="rgb(204, 204, 204)" stroke-width="1px"></line><line x1="49.98400115966797" y1="109.91261526254507" x2="44.98400115966797" y2="109.91261526254507" style="visibility: inherit;" fill="rgb(0, 0, 0)" stroke="rgb(204, 204, 204)" stroke-width="1px"></line><line x1="49.98400115966797" y1="96.17353835472694" x2="44.98400115966797" y2="96.17353835472694" style="visibility: inherit;" fill="rgb(0, 0, 0)" stroke="rgb(204, 204, 204)" stroke-width="1px"></line><line x1="49.98400115966797" y1="82.43446144690881" x2="44.98400115966797" y2="82.43446144690881" style="visibility: inherit;" fill="rgb(0, 0, 0)" stroke="rgb(204, 204, 204)" stroke-width="1px"></line><line x1="49.98400115966797" y1="68.69538453909068" x2="44.98400115966797" y2="68.69538453909068" style="visibility: inherit;" fill="rgb(0, 0, 0)" stroke="rgb(204, 204, 204)" stroke-width="1px"></line><line x1="49.98400115966797" y1="54.95630763127254" x2="44.98400115966797" y2="54.95630763127254" style="visibility: inherit;" fill="rgb(0, 0, 0)" stroke="rgb(204, 204, 204)" stroke-width="1px"></line><line x1="49.98400115966797" y1="41.217230723454406" x2="44.98400115966797" y2="41.217230723454406" style="visibility: inherit;" fill="rgb(0, 0, 0)" stroke="rgb(204, 204, 204)" stroke-width="1px"></line><line x1="49.98400115966797" y1="27.47815381563626" x2="44.98400115966797" y2="27.47815381563626" style="visibility: inherit;" fill="rgb(0, 0, 0)" stroke="rgb(204, 204, 204)" stroke-width="1px"></line><line x1="49.98400115966797" y1="13.739076907818117" x2="44.98400115966797" y2="13.739076907818117" style="visibility: inherit;" fill="rgb(0, 0, 0)" stroke="rgb(204, 204, 204)" stroke-width="1px"></line><line x1="49.98400115966797" y1="0" x2="44.98400115966797" y2="0" style="visibility: inherit;" fill="rgb(0, 0, 0)" stroke="rgb(204, 204, 204)" stroke-width="1px"></line></g><g transform="translate(39.98400115966797, 0)"><text style="text-anchor: end; visibility: hidden; font-family: &quot;Helvetica Neue&quot;, sans-serif; font-size: 12px; font-weight: 200;" x="0" y="178.60799980163574" dx="0em" dy="0.3em" fill="rgb(50, 49, 63)" stroke="none" stroke-width="1px">-0.1</text><text style="text-anchor: end; visibility: inherit; font-family: &quot;Helvetica Neue&quot;, sans-serif; font-size: 12px; font-weight: 200;" x="0" y="164.8689228938176" dx="0em" dy="0.3em" fill="rgb(50, 49, 63)" stroke="none" stroke-width="1px">0</text><text style="text-anchor: end; visibility: hidden; font-family: &quot;Helvetica Neue&quot;, sans-serif; font-size: 12px; font-weight: 200;" x="0" y="151.12984598599948" dx="0em" dy="0.3em" fill="rgb(50, 49, 63)" stroke="none" stroke-width="1px">0.1</text><text style="text-anchor: end; visibility: inherit; font-family: &quot;Helvetica Neue&quot;, sans-serif; font-size: 12px; font-weight: 200;" x="0" y="137.39076907818134" dx="0em" dy="0.3em" fill="rgb(50, 49, 63)" stroke="none" stroke-width="1px">0.2</text><text style="text-anchor: end; visibility: hidden; font-family: &quot;Helvetica Neue&quot;, sans-serif; font-size: 12px; font-weight: 200;" x="0" y="123.6516921703632" dx="0em" dy="0.3em" fill="rgb(50, 49, 63)" stroke="none" stroke-width="1px">0.3</text><text style="text-anchor: end; visibility: inherit; font-family: &quot;Helvetica Neue&quot;, sans-serif; font-size: 12px; font-weight: 200;" x="0" y="109.91261526254507" dx="0em" dy="0.3em" fill="rgb(50, 49, 63)" stroke="none" stroke-width="1px">0.4</text><text style="text-anchor: end; visibility: hidden; font-family: &quot;Helvetica Neue&quot;, sans-serif; font-size: 12px; font-weight: 200;" x="0" y="96.17353835472694" dx="0em" dy="0.3em" fill="rgb(50, 49, 63)" stroke="none" stroke-width="1px">0.5</text><text style="text-anchor: end; visibility: inherit; font-family: &quot;Helvetica Neue&quot;, sans-serif; font-size: 12px; font-weight: 200;" x="0" y="82.43446144690881" dx="0em" dy="0.3em" fill="rgb(50, 49, 63)" stroke="none" stroke-width="1px">0.6</text><text style="text-anchor: end; visibility: hidden; font-family: &quot;Helvetica Neue&quot;, sans-serif; font-size: 12px; font-weight: 200;" x="0" y="68.69538453909068" dx="0em" dy="0.3em" fill="rgb(50, 49, 63)" stroke="none" stroke-width="1px">0.7</text><text style="text-anchor: end; visibility: inherit; font-family: &quot;Helvetica Neue&quot;, sans-serif; font-size: 12px; font-weight: 200;" x="0" y="54.95630763127254" dx="0em" dy="0.3em" fill="rgb(50, 49, 63)" stroke="none" stroke-width="1px">0.8</text><text style="text-anchor: end; visibility: hidden; font-family: &quot;Helvetica Neue&quot;, sans-serif; font-size: 12px; font-weight: 200;" x="0" y="41.217230723454406" dx="0em" dy="0.3em" fill="rgb(50, 49, 63)" stroke="none" stroke-width="1px">0.9</text><text style="text-anchor: end; visibility: inherit; font-family: &quot;Helvetica Neue&quot;, sans-serif; font-size: 12px; font-weight: 200;" x="0" y="27.47815381563626" dx="0em" dy="0.3em" fill="rgb(50, 49, 63)" stroke="none" stroke-width="1px">1</text><text style="text-anchor: end; visibility: hidden; font-family: &quot;Helvetica Neue&quot;, sans-serif; font-size: 12px; font-weight: 200;" x="0" y="13.739076907818117" dx="0em" dy="0.3em" fill="rgb(50, 49, 63)" stroke="none" stroke-width="1px">1.1</text><text style="text-anchor: end; visibility: hidden; font-family: &quot;Helvetica Neue&quot;, sans-serif; font-size: 12px; font-weight: 200;" x="0" y="0" dx="0em" dy="0.3em" fill="rgb(50, 49, 63)" stroke="none" stroke-width="1px">1.2</text></g><line x1="49.98400115966797" y1="0" x2="49.98400115966797" y2="178.60799980163574" fill="rgb(0, 0, 0)" stroke="rgb(204, 204, 204)" stroke-width="1px"></line></g></g><g transform="translate(49, 0)" clip-path="url(#clip_0)"><clipPath id="clip_0"><rect width="280" height="178"></rect></clipPath><g><g><g><line x1="0" y1="0" x2="0" y2="178.60799980163574" fill="rgb(0, 0, 0)" stroke="rgb(60, 60, 60)" stroke-width="1px" opacity="0.25"></line><line x1="25.45599989457564" y1="0" x2="25.45599989457564" y2="178.60799980163574" fill="rgb(0, 0, 0)" stroke="rgb(60, 60, 60)" stroke-width="1px" opacity="0.25"></line><line x1="50.91199978915128" y1="0" x2="50.91199978915128" y2="178.60799980163574" fill="rgb(0, 0, 0)" stroke="rgb(60, 60, 60)" stroke-width="1px" opacity="0.25"></line><line x1="76.36799968372691" y1="0" x2="76.36799968372691" y2="178.60799980163574" fill="rgb(0, 0, 0)" stroke="rgb(60, 60, 60)" stroke-width="1px" opacity="0.25"></line><line x1="101.82399957830256" y1="0" x2="101.82399957830256" y2="178.60799980163574" fill="rgb(0, 0, 0)" stroke="rgb(60, 60, 60)" stroke-width="1px" opacity="0.25"></line><line x1="127.27999947287819" y1="0" x2="127.27999947287819" y2="178.60799980163574" fill="rgb(0, 0, 0)" stroke="rgb(60, 60, 60)" stroke-width="1px" opacity="0.25"></line><line x1="152.73599936745381" y1="0" x2="152.73599936745381" y2="178.60799980163574" fill="rgb(0, 0, 0)" stroke="rgb(60, 60, 60)" stroke-width="1px" opacity="0.25"></line><line x1="178.19199926202947" y1="0" x2="178.19199926202947" y2="178.60799980163574" fill="rgb(0, 0, 0)" stroke="rgb(60, 60, 60)" stroke-width="1px" opacity="0.25"></line><line x1="203.64799915660512" y1="0" x2="203.64799915660512" y2="178.60799980163574" fill="rgb(0, 0, 0)" stroke="rgb(60, 60, 60)" stroke-width="1px" opacity="0.25"></line><line x1="229.10399905118078" y1="0" x2="229.10399905118078" y2="178.60799980163574" fill="rgb(0, 0, 0)" stroke="rgb(60, 60, 60)" stroke-width="1px" opacity="0.25"></line><line x1="254.55999894575638" y1="0" x2="254.55999894575638" y2="178.60799980163574" fill="rgb(0, 0, 0)" stroke="rgb(60, 60, 60)" stroke-width="1px" opacity="0.25"></line><line x1="280.01599884033203" y1="0" x2="280.01599884033203" y2="178.60799980163574" fill="rgb(0, 0, 0)" stroke="rgb(60, 60, 60)" stroke-width="1px" opacity="0.25"></line></g><g><line x1="0" y1="178.60799980163574" x2="280.01599884033203" y2="178.60799980163574" fill="rgb(0, 0, 0)" stroke="rgb(60, 60, 60)" stroke-width="1px" opacity="0.25"></line><line x1="0" y1="164.8689228938176" x2="280.01599884033203" y2="164.8689228938176" fill="rgb(0, 0, 0)" stroke="rgb(60, 60, 60)" stroke-width="1px" opacity="0.25"></line><line x1="0" y1="151.12984598599948" x2="280.01599884033203" y2="151.12984598599948" fill="rgb(0, 0, 0)" stroke="rgb(60, 60, 60)" stroke-width="1px" opacity="0.25"></line><line x1="0" y1="137.39076907818134" x2="280.01599884033203" y2="137.39076907818134" fill="rgb(0, 0, 0)" stroke="rgb(60, 60, 60)" stroke-width="1px" opacity="0.25"></line><line x1="0" y1="123.6516921703632" x2="280.01599884033203" y2="123.6516921703632" fill="rgb(0, 0, 0)" stroke="rgb(60, 60, 60)" stroke-width="1px" opacity="0.25"></line><line x1="0" y1="109.91261526254507" x2="280.01599884033203" y2="109.91261526254507" fill="rgb(0, 0, 0)" stroke="rgb(60, 60, 60)" stroke-width="1px" opacity="0.25"></line><line x1="0" y1="96.17353835472694" x2="280.01599884033203" y2="96.17353835472694" fill="rgb(0, 0, 0)" stroke="rgb(60, 60, 60)" stroke-width="1px" opacity="0.25"></line><line x1="0" y1="82.43446144690881" x2="280.01599884033203" y2="82.43446144690881" fill="rgb(0, 0, 0)" stroke="rgb(60, 60, 60)" stroke-width="1px" opacity="0.25"></line><line x1="0" y1="68.69538453909068" x2="280.01599884033203" y2="68.69538453909068" fill="rgb(0, 0, 0)" stroke="rgb(60, 60, 60)" stroke-width="1px" opacity="0.25"></line><line x1="0" y1="54.95630763127254" x2="280.01599884033203" y2="54.95630763127254" fill="rgb(0, 0, 0)" stroke="rgb(60, 60, 60)" stroke-width="1px" opacity="0.25"></line><line x1="0" y1="41.217230723454406" x2="280.01599884033203" y2="41.217230723454406" fill="rgb(0, 0, 0)" stroke="rgb(60, 60, 60)" stroke-width="1px" opacity="0.25"></line><line x1="0" y1="27.47815381563626" x2="280.01599884033203" y2="27.47815381563626" fill="rgb(0, 0, 0)" stroke="rgb(60, 60, 60)" stroke-width="1px" opacity="0.25"></line><line x1="0" y1="13.739076907818117" x2="280.01599884033203" y2="13.739076907818117" fill="rgb(0, 0, 0)" stroke="rgb(60, 60, 60)" stroke-width="1px" opacity="0.25"></line><line x1="0" y1="0" x2="280.01599884033203" y2="0" fill="rgb(0, 0, 0)" stroke="rgb(60, 60, 60)" stroke-width="1px" opacity="0.25"></line></g></g></g><g><g><line x1="0" y1="164.8689228938176" x2="280.01599884033203" y2="164.8689228938176" fill="rgb(0, 0, 0)" stroke="rgb(153, 153, 153)" stroke-width="1.5px"></line></g></g><g><g><line x1="25.45599989457564" y1="0" x2="25.45599989457564" y2="178.60799980163574" fill="rgb(0, 0, 0)" stroke="rgb(153, 153, 153)" stroke-width="1.5px"></line></g></g><g><g><g><g><g><path style="fill: none;" stroke="rgb(0, 119, 187)" stroke-width="2px" d="M25.774199893257833,162.59934420303546L26.410599890622226,162.26843715163338L27.046999887986615,161.93694534531102L27.683399885351008,161.9378223497363L28.319799882715397,161.9375301002313L28.95619988007979,161.936360846301L29.59259987744418,161.93168357466956L30.228999874808572,161.93226832958985L30.86539987217296,161.9264218040281L31.501799869537354,161.92437554567252L32.13819986690174,161.91765227159576L32.774599864266136,161.9088827391634L33.41099986163053,161.89602043410963L34.04739985899492,161.87848136924492L34.68379985635931,161.84866449833646L35.3201998537237,161.8261559123353L35.95659985108809,161.77909222606718L36.59299984845248,161.74342908550722L37.22939984581687,161.66041000917414L37.865799843181264,161.62328510926864L38.50219984054566,161.47975579851385L39.13859983791004,161.4133987826202L39.77499983527444,161.25700716681163L40.41139983263883,161.1780806071897L41.047799830003214,160.94656269896538L41.68419982736761,160.8536045803594L42.320599824732,160.54725237331405L42.95699982209639,160.43850894278367L43.59339981946078,160.15495782715476L44.22979981682517,159.9950584495553L44.866199814189564,159.67847495073207L45.50259981155396,159.52237584033878L46.13899980891834,159.10260318704186L46.77539980628274,158.9643353910183L47.41179980364713,158.5547940294993L48.04819980101152,158.41184921775454L48.684599798375906,157.95904418126332L49.320999795740306,157.76114315524336L49.95739979310469,157.21771876391696L50.593799790469085,157.0502188519052L51.23019978783347,156.51965650972235L51.86659978519787,156.31824746600122L52.502999782562256,155.71051231713676L53.13939977992664,155.48250242661356L53.77579977729104,154.90546166490333L54.41219977465543,154.62863331153068L55.04859977201982,153.953080411068L55.684999769384206,153.6505279594083L56.321399766748605,153.0194072201174L56.95779976411299,152.64172873195216L57.594199761477384,152.02902431786148L58.23059975884177,151.63088426978146L58.86699975620617,150.7977694759389L59.503399753570555,150.4078134376402L60.13979975093495,149.6162093335603L60.77619974829934,149.1464492193939L61.412599745663734,148.19962224161526L62.04899974302812,147.73600192615658L62.68539974039251,146.81928432470167L63.321799737756905,146.3287698892949L63.9581997351213,145.24133558399112L64.59459973248569,144.71252878612032L65.23099972985007,143.69963601831205L65.86739972721446,143.11236294118288L66.50379972457885,142.03399195327796L67.14019972194325,141.3946872042057L67.77659971930764,140.18711020221457L68.41299971667203,139.57645102283846L69.04939971403643,138.32911785175574L69.68579971140082,137.67929007322107L70.32219970876521,136.3623841180485L70.95859970612959,135.69063199661247L71.59499970349398,134.34946370249844L72.23139970085838,133.5987847655302L72.86779969822277,132.14653504484573L73.50419969558716,131.53704486348968L74.14059969295155,130.08625690215075L74.77699969031593,129.37328685227754L75.41339968768034,127.9645930560703L76.04979968504473,127.25747004357933L76.68619968240911,125.70436916446127L77.3225996797735,124.9873045505949L77.95899967713788,123.5394421552291L78.59539967450229,122.75894455598066L79.23179967186668,121.32131038146976L79.86819966923106,120.48264131157049L80.50459966659545,119.09908813828125L81.14099966395986,118.25164851230863L81.77739966132424,116.64300896718734L82.41379965868863,115.8923279829371L83.05019965605302,114.33952191242658L83.68659965341742,113.50932858999313L84.32299965078181,111.94716644075822L84.95939964814619,111.08569883854501L85.59579964551058,109.6898660678403L86.23219964287499,108.74654813140381L86.86859964023937,107.33317834311639L87.50499963760376,106.39921239084028L88.14139963496815,104.8800185961496L88.77779963233253,104.0013046903972L89.41419962969694,102.75952579537119L90.05059962706133,101.64666015310587L90.68699962442571,100.4531152219193L91.3233996217901,99.42209991387728L91.9597996191545,97.97832798794063L92.59619961651889,97.04202403962442L93.23259961388328,95.7204420923717L93.86899961124766,94.77624382467667L94.50539960861207,93.51283334807479L95.14179960597646,92.4356354527539L95.77819960334084,91.08598526932805L96.41459960070523,90.06110771271177L97.05099959806964,88.82108538563882L97.68739959543402,87.77223825140659L98.32379959279841,86.44042398873496L98.96019959016279,85.41174667673302L99.59659958752718,84.21761622289542L100.23299958489159,83.21495577050605L100.86939958225597,82.27309959341513L101.50579957962036,81.12866076819853L102.14219957698475,79.9661075918762L102.77859957434914,78.87925471465942L103.41499957171354,77.81228504019346L104.05139956907793,76.7087754766525L104.68779956644231,75.5245866241903L105.32419956380672,74.47485506413555L105.9605995611711,73.67594830517388L106.59699955853549,72.46807649457521L107.23339955589988,71.41630584165186L107.86979955326427,70.289997745797L108.50619955062866,69.38993887794825L109.14259954799306,68.2466710980337L109.77899954535744,67.16713111210872L110.41539954272184,66.13903522819383L111.05179954008624,65.36702156553923L111.68819953745061,64.25561768261946L112.32459953481501,63.11732070339262L112.96099953217939,62.22573758300972L113.5973995295438,61.5598304516739L114.23379952690819,60.62236364718363L114.87019952427256,59.63753092642048L115.50659952163696,58.670828935019046L116.14299951900136,57.99059901883514L116.77939951636574,57.00576629807199L117.41579951373014,56.13786613582552L118.05219951109453,55.2857546123367L118.68859950845892,54.568108570383316L119.32499950582331,53.66746827444754L119.96139950318769,52.94689052467503L120.59779950055209,52.14827038519286L121.23419949791649,51.435013715840114L121.87059949528087,50.68871391506258L122.50699949264526,49.78632114573773L123.14339949000966,48.95730296317032L123.77979948737404,48.53285227051123L124.41619948473844,47.69330286935343L125.05259948210283,47.05838339831786L125.68899947946721,46.35623118651458L126.3253994768316,45.589180135419696L126.961799474196,45.0036656735256L127.59819947156039,44.531562445114105L128.23459946892478,43.934648717063055L128.87099946628916,43.381571391122776L129.50739946365357,42.738176172621365L130.14379946101795,42.36838790927098L130.78019945838236,41.68085329092327L131.41659945574673,41.25757364356622L132.05299945311114,40.54109045778688L132.68939945047552,40.00877257129193L133.3257994478399,39.43904674815548L133.9621994452043,39.15051920181335L134.59859944256868,38.60534438437989L135.2349994399331,38.26186778924955L135.87139943729747,37.734815512049835L136.50779943466185,37.175604529247806L137.14419943202626,36.7850650155801L137.78059942939066,36.33664474530502L138.41699942675504,35.87214921679282L139.05339942411942,35.5386060339099L139.68979942148383,35.137543490779734L140.3261994188482,34.90251551757228L140.9625994162126,34.49940569244552L141.59899941357702,34.068231725709666L142.23539941094137,33.730602167961564L142.87179940830578,33.4239602705137L143.50819940567015,33.09217775014787L144.14459940303456,32.62943469502471L144.78099940039897,32.38300745566028L145.41739939776332,32.14300868176514L146.05379939512773,31.83490093040774L146.6901993924921,31.637878700184785L147.3265993898565,31.377423484579793L147.96299938722092,31.00880626653145L148.5993993845853,30.742209204936728L149.23579938194968,30.472107196563826L149.87219937931408,30.259582947062768L150.50859937667846,30.024849782462837L151.14499937404287,29.839226818396867L151.78139937140725,29.569419618631485L152.41779936877163,29.407471423573952L153.05419936613603,29.199336546673578L153.6905993635004,29.067499775221762L154.32699936086482,28.845631730688325L154.96339935822922,28.722270706702375L155.5997993555936,28.536942551243897L156.23619935295798,28.443979570343174L156.87259935032236,28.268003399045085L157.50899934768677,28.202817940273945L158.14539934505117,28.06162918466177L158.78179934241555,27.973342195841212L159.41819933977993,27.841218804909886L160.0545993371443,27.790356130986822L160.69099933450872,27.70265875938128L161.32739933187312,27.661148069618633L161.9637993292375,27.59216285546185L162.6001993266019,27.572279652711046L163.2365993239663,27.529606106774338L163.87299932133067,27.521998406875014L164.50939931869507,27.503875866641295L165.14579931605945,27.49949468316862L165.78219931342386,27.495105310567936L166.41859931078824,27.491895172397307L167.05499930815262,27.48341942493147L167.69139930551702,27.48458228110553L168.32779930288143,27.482248379629425L168.9641993002458,27.482829807716456L169.60059929761022,27.482248379629425L170.23699929497457,27.48341942493147L170.87339929233897,27.48049590624035L171.50979928970338,27.48078252571986L172.14619928706776,27.481658762414412L172.78259928443217,27.48341942493147L173.41899928179652,27.482829807716456L174.05539927916092,27.48370604441098L174.69179927652533,27.482248379629425L175.3281992738897,27.48370604441098L175.96459927125412,27.48107733432738L176.60099926861852,27.481953571021904L177.23739926598287,27.48107733432738L177.87379926334728,27.48341942493147L178.51019926071166,27.482829807716456L179.14659925807607,27.484295661625993L179.78299925544047,27.482829807716456L180.41939925280482,27.48312461632395L181.05579925016923,27.482829807716456L181.6921992475336,27.481953571021904L182.32859924489802,27.479906289025337L182.96499924226242,27.481372142934873L183.6013992396268,27.482829807716456L184.23779923699118,27.482248379629425L184.8741992343556,27.48341942493147L185.51059923171997,27.482829807716456L186.14699922908437,27.482248379629425L186.78339922644875,27.481658762414412L187.41979922381313,27.48341942493147L188.05619922117754,27.48341942493147L188.69259921854191,27.48458228110553" fill="none"></path></g><g><path style="fill: none;" stroke="rgb(0, 153, 136)" stroke-width="2px" d="M25.77521813325362,164.00749450985015L26.410599890622226,162.9741206689705L27.045981647990835,161.94571513365364L27.68136340535944,161.93162727441467L28.31674516272805,161.94571513365364L28.95212692009666,161.94571513365364L29.587508677465266,161.94571513365364L30.222890434833875,161.94571513365364L30.85827219220248,161.94571513365364L31.49365394957109,161.93867120403414L32.129035706939696,161.93159323835147L32.7644174643083,161.93867120403414L33.399799221676915,161.94571513365364L34.03518097904552,161.94571513365364L34.670562736414134,161.94571513365364L35.30594449378274,161.93867120403414L35.941326251151345,161.93159323835147L36.57670800851995,161.93867120403414L37.212089765888564,161.94571513365364L37.84747152325717,161.94571513365364L38.48285328062578,161.94571513365364L39.11823503799438,161.93162727441467L39.753616795362994,161.93159323835147L40.3889985527316,161.92458334479517L41.02438031010021,161.91747159895954L41.65976206746881,161.91753967108593L42.295143824837425,161.88922780835523L42.93052558220603,161.889363952608L43.56590733957464,161.91747159895954L44.20128909694325,161.889363952608L44.836670854311855,161.9033497036574L45.47205261168046,161.88232027889876L46.10743436904907,161.8751061689633L46.74281612641768,161.85414456042082L47.37819788378629,161.77625366957892L48.01357964115489,161.76257424309824L48.648961398523504,161.762132030187L49.28434315589211,161.72031117720184L49.91972491326072,161.66327953080258L50.55510667062932,161.67804785539516L51.190488427997934,161.71976660019075L51.82587018536654,161.61465300064032L52.46125194273515,161.57854892672037L53.096633700103766,161.55125814588544L53.732015457472365,161.4514528926419L54.36739721484098,161.4455999693239L55.00277897220958,161.4232093579478L55.638160729578196,161.36811725533008L56.2735424869468,161.3526003932575L56.90892424431541,161.36811725533008L57.54430600168401,161.15489565039894L58.17968775905263,161.09340630336237L58.81506951642123,161.225504359179L59.45045127378984,161.1356693692588L60.085833031158444,161.1125302204027L60.72121478852706,161.05114298155573L61.35659654589566,160.70299858347317L61.991978303264275,160.70599324521368L62.627360060632874,160.9713125469323L63.26274181800149,160.89617780947827L63.89812357537009,160.7453640134694L64.5335053327387,160.6919053859747L65.16888709010732,160.279345563062L65.80426884747591,160.3819747859096L66.43965060484453,160.68887694408127L67.07503236221314,160.48763296247114L67.71041411958174,160.12400599428946L68.34579587695035,160.11430750765115L68.98117763431895,159.8839355655244L69.61655939168756,159.95934259148396L70.25194114905617,160.19461470306953L70.88732290642479,159.98751779814143L71.52270466379339,159.71447435735993L72.15808642116201,159.65645592103834L72.7934681785306,159.50264771919922L73.42884993589921,159.4874031456322L74.06423169326783,159.54501314919548L74.69961345063643,159.39583231648913L75.33499520800504,159.2625772904342L75.97037696537365,159.2901746517481L76.60575872274225,159.0789944428778L77.24114048011087,159.0154631879599L77.87652223747946,158.93777651349717L78.51190399484808,158.9943316550117L79.14728575221669,158.8954110835009L79.7826675095853,158.83936622702402L80.4180492669539,158.51412323717574L81.0534310243225,158.50830434992096L81.68881278169111,158.5847319459558L82.32419453905973,158.5364800683989L82.95957629642832,157.90688660147742L83.59495805379694,158.07158429625636L84.23033981116555,157.8645216833017L84.86572156853416,157.97296979340405L85.50110332590276,157.8645216833017L86.13648508327137,157.89548733532047L86.77186684063999,157.34201590759585L87.4072485980086,157.45172309612613L88.04263035537718,157.4549900463722L88.6780121127458,157.4869424883133L89.31339387011441,157.31377211699154L89.94877562748303,157.33902124585535L90.58415738485164,156.63592677251316L91.21953914222023,156.84595026705537L91.85492089958885,156.7912663412857L92.49030265695745,156.86708180000358L93.12568441432607,156.66417056311747L93.76106617169467,156.7121163720159L94.39644792906327,156.46646556434868L95.03182968643189,156.56419512955796L95.6672114438005,156.70653599311373L96.3025932011691,156.6346339139323L96.93797495853771,156.25463892618797L97.57335671590631,156.28243999206055L98.20873847327493,155.73213263866165L98.84412023064353,155.89502667800159L99.47950198801213,155.84510780107897L100.11488374538075,156.06407996522825L100.75026550274936,155.60503737231392L101.38564726011796,155.697798695938L102.02102901748657,155.30847936234022L102.65641077485517,155.34560477406623L103.2917925322238,155.2802360835564L103.92717428959239,155.3808241662534L104.562556046961,154.95543581843987L105.19793780432961,154.9229720678201L105.83331956169822,154.5741469484737L106.46870131906684,154.59895386442625L107.10408307643543,154.40468625212972L107.73946483380405,154.60599753813548L108.37484659117266,154.31995539213725L109.01022834854125,154.112927071156L109.64561010590987,154.02339840580453L110.28099186327847,154.05657563420013L110.9163736206471,153.93866754581205L111.5517553780157,154.14814646334318L112.18713713538429,154.23522453214474L112.82251889275291,153.9720495024073L113.45790065012152,153.4020401307143L114.09328240749014,153.6128119068263L114.72866416485873,153.75508469825567L115.36404592222733,153.59872353576682L115.99942767959595,153.47264883949438L116.63480943696456,153.2606179849545L117.27019119433315,152.56885470564288L117.90557295170177,152.89433671566425L118.54095470907038,153.06311771438538L119.176336466439,152.92251243414222L119.81171822380759,152.54061142685904L120.4470999811762,152.45761666199965L121.08248173854481,152.17344573174628L121.71786349591342,152.27447602735455L122.35324525328203,152.72419427441542L122.98862701065063,152.49283605418685L123.62400876801924,152.15932358053388L124.25939052538786,152.03498395575355L124.89477228275645,151.46735659666356L125.53015404012507,151.54191246513304L126.16553579749367,151.6933048742162L126.80091755486228,151.71800942606893L127.4362993122309,151.4955998754474L128.0716810695995,151.30946509088227L128.70706282696813,150.37997961525568L129.3424445843367,150.6614286840946L129.9778263417053,151.0860687503384L130.61320809907394,151.02770995338486L131.24858985644255,150.67653660158837L131.88397161381116,150.46419967839003L132.51935337117976,149.65976935260156L133.15473512854837,149.85138266378954L133.79011688591697,150.2952487552632L134.42549864328558,150.19653291195206L135.06088040065418,150.13990918649066L135.6962621580228,149.81616327160236L136.3316439153914,148.8971926363102L136.96702567276,149.29491708614492L137.6024074301286,149.60328177139291L138.2377891874972,149.63302263695724L138.87317094486585,150.21051789527073L139.50855270223443,149.85842633749877L140.14393445960306,148.81246279995872L140.77931621697167,149.52032078668645L141.41469797434027,149.77274349137787L142.05007973170885,149.6471099843757L142.68546148907748,149.47618548140417L143.3208432464461,149.20334625700187L143.9562250038147,148.3040786636448L144.5916067611833,148.67505537419422L145.2269885185519,148.93955806630643L145.86237027592054,148.87932805360802L146.49775203328915,148.72773193996622L147.13313379065775,148.4919147395491L147.76851554802633,147.28731141465798L148.40389730539493,147.7663958746778L149.03927906276357,148.3040786636448L149.67466082013217,148.06223835959372L150.31004257750078,147.8098166785433L150.9454243348694,147.7030007640127L151.580806092238,146.94838797468805L152.21618784960663,147.23810499187016L152.8515696069752,147.79569452733088L153.4869513643438,147.40715930273782L154.12233312171242,147.25906711223314L154.75771487908102,147.07609537835276L155.39309663644966,146.708317545923L156.02847839381826,146.68163941422557L156.66386015118687,147.65447710977074L157.29924190855547,146.85773637516144L157.93462366592405,147.0896053922482L158.57000542329268,146.69572676164404L159.2053871806613,146.32702969959783L159.8407689380299,146.25900670797944L160.4761506953985,147.0048745322557L161.1115324527671,146.4139716241466L161.7469142101357,146.73656184834783L162.38229596750435,146.3928395793779L163.01767772487295,145.59269626209027L163.65305948224153,145.82228665431484L164.28844123961014,146.53885582593804L164.92382299697874,146.0195156600194L165.55920475434738,146.3129075483854L166.19458651171598,145.8152419569646L166.8299682690846,145.1125574518422L167.4653500264532,145.09676676580258L168.10073178382177,146.07283711962037L168.7361135411904,145.5405315168174L169.371495298559,145.84688884206773L170.00687705592762,145.43487334025588L170.64225881329622,144.68890315187977L171.27764057066483,144.6882234542569L171.91302232803346,145.77628013328766L172.54840408540207,145.32921516369436L173.18378584277067,145.3949922869625L173.81916760013925,145.09676676580258L174.45454935750786,144.34998175919185L175.0899311148765,144.39942361940925L175.7253128722451,145.5220875533102L176.3606946296137,145.0404173761287L176.9960763869823,145.05606884699256L177.63145814435092,144.82910102300562L178.26683990171955,144.05342272557715L178.90222165908813,144.13880052668054L179.53760341645673,145.2255305669775L180.17298517382534,144.77979428339998L180.80836693119394,144.8301205694399L181.44374868856258,144.63187201730102L182.07913044593118,143.7145013328892L182.7145122032998,143.85704538918313L183.3498939606684,145.07019099820496L183.98527571803697,144.57552058034514L184.6206574754056,144.68890315187977L185.2560392327742,144.46281975371537L185.89142099014282,143.34733563777644L186.52680274751143,143.6950357756657L187.16218450488003,144.80187831429708L187.79756626224867,144.39238096934102L188.43294801961727,144.44883272311475L189.06832977698588,144.1317558293303L189.70371153435445,143.00841219780648L190.33909329172306,143.4485000303555L190.9744750490917,144.64653874552454L191.6098568064603,144.2515034005923L192.2452385638289,144.02518047043432L192.8806203211975,143.793651302159L193.51600207856612,142.86719478024634L194.15138383593475,143.3005798115385L194.78676559330333,144.37822401433468L195.42214735067193,143.913396826139L196.05752910804054,143.7286234841016L196.69291086540915,143.63868638599183L197.32829262277775,142.65536660662414L197.9636743801464,143.075176110997L198.599056137515,144.16639788799446L199.2344378948836,143.60346699380466L199.86981965225218,143.60152617047189L200.50520140962078,143.54007085949854L201.14058316698942,142.2175922027313L201.77596492435802,142.7793336260811L202.41134668172663,143.8980831568046L203.04672843909523,143.32171185630722L203.68211019646384,143.44618660169934L204.31749195383247,143.39919329074982L204.95287371120108,142.07637478517117L205.58825546856966,142.5750599230263L206.22363722593826,143.7286234841016L206.85901898330687,143.08926345841547L207.4944007406755,143.33321348656403L208.1297824980441,143.20900898239546L208.7651642554127,141.83630435640612L209.40054601278132,142.29330478552885L210.03592777014993,143.36145574170683L210.67130952751853,142.87794710529238L211.30669128488714,142.99429004659407L211.94207304225574,143.0117799766909L212.57745479962435,141.85042650761852L213.21283655699295,142.1453845667119L213.8482183143616,143.1213853129418L214.4836000717302,142.6173240125637L215.1189818290988,142.7118552114738L215.75436358646738,142.81455301826827L216.38974534383598,141.6103560788535L217.02512710120462,141.94111291093907L217.66050885857322,142.86719478024634L218.29589061594183,142.34965622248473L218.93127237331043,142.66948875783658L219.56665413067904,142.64549870740063L220.20203588804767,141.42677220765611L220.83741764541628,141.6875324682786L221.47279940278486,142.83895047782153L222.10818116015346,142.2017360036678L222.74356291752207,142.514149189064L223.3789446748907,142.44827174897802L224.0143264322593,141.49738091643619L224.64970818962792,141.62413838125448L225.28508994699652,142.54239349148884L225.92047170436513,141.9481555610073L226.55585346173373,142.37293177150386L227.19123521910234,142.32852417771602L227.82661697647094,141.45501651008095L228.46199873383955,141.46917141780528L229.09738049120816,142.3023230627238L229.7327622485768,141.77910329742167L230.3681440059454,142.18934994758848L231.003525763314,142.11720782459298L231.63890752068258,141.14433737253583L232.27428927805119,141.20150567500835L232.9096710354198,142.25995865636855L233.54505279278843,141.65231307609142L234.18043455015703,141.83630435640612L234.81581630752564,141.89884882140166L235.45119806489424,140.91838909498318L236.08657982226285,140.97610197446681L236.72196157963148,141.94927951882343L237.35734333700006,141.45508407038682L237.99272509436867,141.6386003812783L238.62810685173727,141.66640042350988L239.26348860910588,140.69244081743057L239.8988703664745,140.75069622664327L240.53425212384312,141.6244782300659L241.16963388121172,141.18037363023964L241.80501563858033,141.5115030676486L242.4403973959489,141.4339520256181L243.07577915331754,140.41000598231028L243.71116091068615,140.5182498760335L244.34654266805475,141.35616349887604L244.98192442542336,140.94792523234787L245.61730618279196,141.3985299525133L246.2526879401606,141.32125119898836L246.8880696975292,140.3111529711054L247.52345145489778,140.34919556516587L248.1588332122664,141.2149460813159L248.794214969635,140.80704766359918L249.42959672700363,141.04548436133092L250.06497848437223,141.10993484586527L250.70036024174084,139.98635168234787L251.33574199910944,140.07448512501867L251.97112375647805,141.04548436133092L252.60650551384668,140.59573131047608L253.24188727121526,140.8477803862031L253.87726902858387,140.92679318757916L254.51265078595247,139.97222953113544L255.14803254332108,139.9617822511069L255.7834143006897,140.69244081743057L256.4187960580583,140.37032760993458L257.0541778154269,140.73480522378583L257.68955957279553,140.82817970836788L258.3249413301641,139.73215910237042L258.96032308753274,139.72229120314688L259.5957048449014,140.55122339987042L260.23108660226995,140.23649473853607L260.86646835963853,140.38176167988547L261.50185011700717,140.58868866040785L262.1372318743758,139.40735986089487L262.7726136317444,139.48984280525514L263.407995389113,140.43824823745314L264.0433771464816,140.11674921455608L264.6787589038502,140.3111529711054L265.3141406612188,140.38441495735304L265.94952241858743,139.05431426971253L266.584904175956,139.13060623331512L267.22028593332465,140.22642211111292L267.8556676906932,139.9406522536202L268.49104944806186,140.05696039112794" fill="none"></path></g></g></g></g></g></g><g transform="translate(49, 178)" clip-path="url(#clip_1)"><clipPath id="clip_1"><rect width="280" height="21"></rect></clipPath><g><g><line x1="0" y1="0" x2="0" y2="5" style="visibility: inherit;" fill="rgb(0, 0, 0)" stroke="rgb(204, 204, 204)" stroke-width="1px"></line><line x1="25.45599989457564" y1="0" x2="25.45599989457564" y2="5" style="visibility: inherit;" fill="rgb(0, 0, 0)" stroke="rgb(204, 204, 204)" stroke-width="1px"></line><line x1="50.91199978915128" y1="0" x2="50.91199978915128" y2="5" style="visibility: inherit;" fill="rgb(0, 0, 0)" stroke="rgb(204, 204, 204)" stroke-width="1px"></line><line x1="76.36799968372691" y1="0" x2="76.36799968372691" y2="5" style="visibility: inherit;" fill="rgb(0, 0, 0)" stroke="rgb(204, 204, 204)" stroke-width="1px"></line><line x1="101.82399957830256" y1="0" x2="101.82399957830256" y2="5" style="visibility: inherit;" fill="rgb(0, 0, 0)" stroke="rgb(204, 204, 204)" stroke-width="1px"></line><line x1="127.27999947287819" y1="0" x2="127.27999947287819" y2="5" style="visibility: inherit;" fill="rgb(0, 0, 0)" stroke="rgb(204, 204, 204)" stroke-width="1px"></line><line x1="152.73599936745381" y1="0" x2="152.73599936745381" y2="5" style="visibility: inherit;" fill="rgb(0, 0, 0)" stroke="rgb(204, 204, 204)" stroke-width="1px"></line><line x1="178.19199926202947" y1="0" x2="178.19199926202947" y2="5" style="visibility: inherit;" fill="rgb(0, 0, 0)" stroke="rgb(204, 204, 204)" stroke-width="1px"></line><line x1="203.64799915660512" y1="0" x2="203.64799915660512" y2="5" style="visibility: inherit;" fill="rgb(0, 0, 0)" stroke="rgb(204, 204, 204)" stroke-width="1px"></line><line x1="229.10399905118078" y1="0" x2="229.10399905118078" y2="5" style="visibility: inherit;" fill="rgb(0, 0, 0)" stroke="rgb(204, 204, 204)" stroke-width="1px"></line><line x1="254.55999894575638" y1="0" x2="254.55999894575638" y2="5" style="visibility: inherit;" fill="rgb(0, 0, 0)" stroke="rgb(204, 204, 204)" stroke-width="1px"></line><line x1="280.01599884033203" y1="0" x2="280.01599884033203" y2="5" style="visibility: inherit;" fill="rgb(0, 0, 0)" stroke="rgb(204, 204, 204)" stroke-width="1px"></line></g><g transform="translate(0, 8)"><text style="text-anchor: middle; visibility: hidden; font-family: &quot;Helvetica Neue&quot;, sans-serif; font-size: 12px; font-weight: 200;" x="0" y="0" dx="0em" dy="0.95em" fill="rgb(50, 49, 63)" stroke="none" stroke-width="1px">-200k</text><text style="text-anchor: middle; visibility: hidden; font-family: &quot;Helvetica Neue&quot;, sans-serif; font-size: 12px; font-weight: 200;" x="25.45599989457564" y="0" dx="0em" dy="0.95em" fill="rgb(50, 49, 63)" stroke="none" stroke-width="1px">0</text><text style="text-anchor: middle; visibility: hidden; font-family: &quot;Helvetica Neue&quot;, sans-serif; font-size: 12px; font-weight: 200;" x="50.91199978915128" y="0" dx="0em" dy="0.95em" fill="rgb(50, 49, 63)" stroke="none" stroke-width="1px">200k</text><text style="text-anchor: middle; visibility: hidden; font-family: &quot;Helvetica Neue&quot;, sans-serif; font-size: 12px; font-weight: 200;" x="76.36799968372691" y="0" dx="0em" dy="0.95em" fill="rgb(50, 49, 63)" stroke="none" stroke-width="1px">400k</text><text style="text-anchor: middle; visibility: hidden; font-family: &quot;Helvetica Neue&quot;, sans-serif; font-size: 12px; font-weight: 200;" x="101.82399957830256" y="0" dx="0em" dy="0.95em" fill="rgb(50, 49, 63)" stroke="none" stroke-width="1px">600k</text><text style="text-anchor: middle; visibility: hidden; font-family: &quot;Helvetica Neue&quot;, sans-serif; font-size: 12px; font-weight: 200;" x="127.27999947287819" y="0" dx="0em" dy="0.95em" fill="rgb(50, 49, 63)" stroke="none" stroke-width="1px">800k</text><text style="text-anchor: middle; visibility: hidden; font-family: &quot;Helvetica Neue&quot;, sans-serif; font-size: 12px; font-weight: 200;" x="152.73599936745381" y="0" dx="0em" dy="0.95em" fill="rgb(50, 49, 63)" stroke="none" stroke-width="1px">1M</text><text style="text-anchor: middle; visibility: hidden; font-family: &quot;Helvetica Neue&quot;, sans-serif; font-size: 12px; font-weight: 200;" x="178.19199926202947" y="0" dx="0em" dy="0.95em" fill="rgb(50, 49, 63)" stroke="none" stroke-width="1px">1.2M</text><text style="text-anchor: middle; visibility: hidden; font-family: &quot;Helvetica Neue&quot;, sans-serif; font-size: 12px; font-weight: 200;" x="203.64799915660512" y="0" dx="0em" dy="0.95em" fill="rgb(50, 49, 63)" stroke="none" stroke-width="1px">1.4M</text><text style="text-anchor: middle; visibility: hidden; font-family: &quot;Helvetica Neue&quot;, sans-serif; font-size: 12px; font-weight: 200;" x="229.10399905118078" y="0" dx="0em" dy="0.95em" fill="rgb(50, 49, 63)" stroke="none" stroke-width="1px">1.6M</text><text style="text-anchor: middle; visibility: hidden; font-family: &quot;Helvetica Neue&quot;, sans-serif; font-size: 12px; font-weight: 200;" x="254.55999894575638" y="0" dx="0em" dy="0.95em" fill="rgb(50, 49, 63)" stroke="none" stroke-width="1px">1.8M</text><text style="text-anchor: middle; visibility: hidden; font-family: &quot;Helvetica Neue&quot;, sans-serif; font-size: 12px; font-weight: 200;" x="280.01599884033203" y="0" dx="0em" dy="0.95em" fill="rgb(50, 49, 63)" stroke="none" stroke-width="1px">2M</text></g><line x1="0" y1="0" x2="280.01599884033203" y2="0" fill="rgb(0, 0, 0)" stroke="rgb(204, 204, 204)" stroke-width="1px"></line></g></g></g></g></svg>