<svg viewBox="0 0 330 200" xmlns="http://www.w3.org/2000/svg"><g><g><g><g><g><line x1="29.992000579833984" y1="178.60799980163574" x2="24.992000579833984" y2="178.60799980163574" style="visibility: inherit;" fill="rgb(0, 0, 0)" stroke="rgb(204, 204, 204)" stroke-width="1px"></line><line x1="29.992000579833984" y1="164.8689228938176" x2="24.992000579833984" y2="164.8689228938176" style="visibility: inherit;" fill="rgb(0, 0, 0)" stroke="rgb(204, 204, 204)" stroke-width="1px"></line><line x1="29.992000579833984" y1="151.12984598599948" x2="24.992000579833984" y2="151.12984598599948" style="visibility: inherit;" fill="rgb(0, 0, 0)" stroke="rgb(204, 204, 204)" stroke-width="1px"></line><line x1="29.992000579833984" y1="137.39076907818134" x2="24.992000579833984" y2="137.39076907818134" style="visibility: inherit;" fill="rgb(0, 0, 0)" stroke="rgb(204, 204, 204)" stroke-width="1px"></line><line x1="29.992000579833984" y1="123.6516921703632" x2="24.992000579833984" y2="123.6516921703632" style="visibility: inherit;" fill="rgb(0, 0, 0)" stroke="rgb(204, 204, 204)" stroke-width="1px"></line><line x1="29.992000579833984" y1="109.91261526254507" x2="24.992000579833984" y2="109.91261526254507" style="visibility: inherit;" fill="rgb(0, 0, 0)" stroke="rgb(204, 204, 204)" stroke-width="1px"></line><line x1="29.992000579833984" y1="96.17353835472693" x2="24.992000579833984" y2="96.17353835472693" style="visibility: inherit;" fill="rgb(0, 0, 0)" stroke="rgb(204, 204, 204)" stroke-width="1px"></line><line x1="29.992000579833984" y1="82.43446144690881" x2="24.992000579833984" y2="82.43446144690881" style="visibility: inherit;" fill="rgb(0, 0, 0)" stroke="rgb(204, 204, 204)" stroke-width="1px"></line><line x1="29.992000579833984" y1="68.69538453909067" x2="24.992000579833984" y2="68.69538453909067" style="visibility: inherit;" fill="rgb(0, 0, 0)" stroke="rgb(204, 204, 204)" stroke-width="1px"></line><line x1="29.992000579833984" y1="54.95630763127254" x2="24.992000579833984" y2="54.95630763127254" style="visibility: inherit;" fill="rgb(0, 0, 0)" stroke="rgb(204, 204, 204)" stroke-width="1px"></line><line x1="29.992000579833984" y1="41.217230723454406" x2="24.992000579833984" y2="41.217230723454406" style="visibility: inherit;" fill="rgb(0, 0, 0)" stroke="rgb(204, 204, 204)" stroke-width="1px"></line><line x1="29.992000579833984" y1="27.47815381563626" x2="24.992000579833984" y2="27.47815381563626" style="visibility: inherit;" fill="rgb(0, 0, 0)" stroke="rgb(204, 204, 204)" stroke-width="1px"></line><line x1="29.992000579833984" y1="13.739076907818117" x2="24.992000579833984" y2="13.739076907818117" style="visibility: inherit;" fill="rgb(0, 0, 0)" stroke="rgb(204, 204, 204)" stroke-width="1px"></line><line x1="29.992000579833984" y1="0" x2="24.992000579833984" y2="0" style="visibility: inherit;" fill="rgb(0, 0, 0)" stroke="rgb(204, 204, 204)" stroke-width="1px"></line></g><g transform="translate(19.992000579833984, 0)"><text style="text-anchor: end; visibility: hidden; font-family: &quot;Helvetica Neue&quot;, sans-serif; font-size: 12px; font-weight: 200;" x="0" y="178.60799980163574" dx="0em" dy="0.3em" fill="rgb(50, 49, 63)" stroke="none" stroke-width="1px">-1</text><text style="text-anchor: end; visibility: inherit; font-family: &quot;Helvetica Neue&quot;, sans-serif; font-size: 12px; font-weight: 200;" x="0" y="164.8689228938176" dx="0em" dy="0.3em" fill="rgb(50, 49, 63)" stroke="none" stroke-width="1px">0</text><text style="text-anchor: end; visibility: hidden; font-family: &quot;Helvetica Neue&quot;, sans-serif; font-size: 12px; font-weight: 200;" x="0" y="151.12984598599948" dx="0em" dy="0.3em" fill="rgb(50, 49, 63)" stroke="none" stroke-width="1px">1</text><text style="text-anchor: end; visibility: inherit; font-family: &quot;Helvetica Neue&quot;, sans-serif; font-size: 12px; font-weight: 200;" x="0" y="137.39076907818134" dx="0em" dy="0.3em" fill="rgb(50, 49, 63)" stroke="none" stroke-width="1px">2</text><text style="text-anchor: end; visibility: hidden; font-family: &quot;Helvetica Neue&quot;, sans-serif; font-size: 12px; font-weight: 200;" x="0" y="123.6516921703632" dx="0em" dy="0.3em" fill="rgb(50, 49, 63)" stroke="none" stroke-width="1px">3</text><text style="text-anchor: end; visibility: inherit; font-family: &quot;Helvetica Neue&quot;, sans-serif; font-size: 12px; font-weight: 200;" x="0" y="109.91261526254507" dx="0em" dy="0.3em" fill="rgb(50, 49, 63)" stroke="none" stroke-width="1px">4</text><text style="text-anchor: end; visibility: hidden; font-family: &quot;Helvetica Neue&quot;, sans-serif; font-size: 12px; font-weight: 200;" x="0" y="96.17353835472693" dx="0em" dy="0.3em" fill="rgb(50, 49, 63)" stroke="none" stroke-width="1px">5</text><text style="text-anchor: end; visibility: inherit; font-family: &quot;Helvetica Neue&quot;, sans-serif; font-size: 12px; font-weight: 200;" x="0" y="82.43446144690881" dx="0em" dy="0.3em" fill="rgb(50, 49, 63)" stroke="none" stroke-width="1px">6</text><text style="text-anchor: end; visibility: hidden; font-family: &quot;Helvetica Neue&quot;, sans-serif; font-size: 12px; font-weight: 200;" x="0" y="68.69538453909067" dx="0em" dy="0.3em" fill="rgb(50, 49, 63)" stroke="none" stroke-width="1px">7</text><text style="text-anchor: end; visibility: inherit; font-family: &quot;Helvetica Neue&quot;, sans-serif; font-size: 12px; font-weight: 200;" x="0" y="54.95630763127254" dx="0em" dy="0.3em" fill="rgb(50, 49, 63)" stroke="none" stroke-width="1px">8</text><text style="text-anchor: end; visibility: hidden; font-family: &quot;Helvetica Neue&quot;, sans-serif; font-size: 12px; font-weight: 200;" x="0" y="41.217230723454406" dx="0em" dy="0.3em" fill="rgb(50, 49, 63)" stroke="none" stroke-width="1px">9</text><text style="text-anchor: end; visibility: inherit; font-family: &quot;Helvetica Neue&quot;, sans-serif; font-size: 12px; font-weight: 200;" x="0" y="27.47815381563626" dx="0em" dy="0.3em" fill="rgb(50, 49, 63)" stroke="none" stroke-width="1px">10</text><text style="text-anchor: end; visibility: hidden; font-family: &quot;Helvetica Neue&quot;, sans-serif; font-size: 12px; font-weight: 200;" x="0" y="13.739076907818117" dx="0em" dy="0.3em" fill="rgb(50, 49, 63)" stroke="none" stroke-width="1px">11</text><text style="text-anchor: end; visibility: hidden; font-family: &quot;Helvetica Neue&quot;, sans-serif; font-size: 12px; font-weight: 200;" x="0" y="0" dx="0em" dy="0.3em" fill="rgb(50, 49, 63)" stroke="none" stroke-width="1px">12</text></g><line x1="29.992000579833984" y1="0" x2="29.992000579833984" y2="178.60799980163574" fill="rgb(0, 0, 0)" stroke="rgb(204, 204, 204)" stroke-width="1px"></line></g></g><g transform="translate(30, 0)" clip-path="url(#clip_0)"><clipPath id="clip_0"><rect width="300" height="178"></rect></clipPath><g><g><g><line x1="0" y1="0" x2="0" y2="178.60799980163574" fill="rgb(0, 0, 0)" stroke="rgb(60, 60, 60)" stroke-width="1px" opacity="0.25"></line><line x1="37.50099992752075" y1="0" x2="37.50099992752075" y2="178.60799980163574" fill="rgb(0, 0, 0)" stroke="rgb(60, 60, 60)" stroke-width="1px" opacity="0.25"></line><line x1="75.0019998550415" y1="0" x2="75.0019998550415" y2="178.60799980163574" fill="rgb(0, 0, 0)" stroke="rgb(60, 60, 60)" stroke-width="1px" opacity="0.25"></line><line x1="112.50299978256226" y1="0" x2="112.50299978256226" y2="178.60799980163574" fill="rgb(0, 0, 0)" stroke="rgb(60, 60, 60)" stroke-width="1px" opacity="0.25"></line><line x1="150.003999710083" y1="0" x2="150.003999710083" y2="178.60799980163574" fill="rgb(0, 0, 0)" stroke="rgb(60, 60, 60)" stroke-width="1px" opacity="0.25"></line><line x1="187.50499963760376" y1="0" x2="187.50499963760376" y2="178.60799980163574" fill="rgb(0, 0, 0)" stroke="rgb(60, 60, 60)" stroke-width="1px" opacity="0.25"></line><line x1="225.0059995651245" y1="0" x2="225.0059995651245" y2="178.60799980163574" fill="rgb(0, 0, 0)" stroke="rgb(60, 60, 60)" stroke-width="1px" opacity="0.25"></line><line x1="262.50699949264526" y1="0" x2="262.50699949264526" y2="178.60799980163574" fill="rgb(0, 0, 0)" stroke="rgb(60, 60, 60)" stroke-width="1px" opacity="0.25"></line><line x1="300.007999420166" y1="0" x2="300.007999420166" y2="178.60799980163574" fill="rgb(0, 0, 0)" stroke="rgb(60, 60, 60)" stroke-width="1px" opacity="0.25"></line></g><g><line x1="0" y1="178.60799980163574" x2="300.007999420166" y2="178.60799980163574" fill="rgb(0, 0, 0)" stroke="rgb(60, 60, 60)" stroke-width="1px" opacity="0.25"></line><line x1="0" y1="164.8689228938176" x2="300.007999420166" y2="164.8689228938176" fill="rgb(0, 0, 0)" stroke="rgb(60, 60, 60)" stroke-width="1px" opacity="0.25"></line><line x1="0" y1="151.12984598599948" x2="300.007999420166" y2="151.12984598599948" fill="rgb(0, 0, 0)" stroke="rgb(60, 60, 60)" stroke-width="1px" opacity="0.25"></line><line x1="0" y1="137.39076907818134" x2="300.007999420166" y2="137.39076907818134" fill="rgb(0, 0, 0)" stroke="rgb(60, 60, 60)" stroke-width="1px" opacity="0.25"></line><line x1="0" y1="123.6516921703632" x2="300.007999420166" y2="123.6516921703632" fill="rgb(0, 0, 0)" stroke="rgb(60, 60, 60)" stroke-width="1px" opacity="0.25"></line><line x1="0" y1="109.91261526254507" x2="300.007999420166" y2="109.91261526254507" fill="rgb(0, 0, 0)" stroke="rgb(60, 60, 60)" stroke-width="1px" opacity="0.25"></line><line x1="0" y1="96.17353835472693" x2="300.007999420166" y2="96.17353835472693" fill="rgb(0, 0, 0)" stroke="rgb(60, 60, 60)" stroke-width="1px" opacity="0.25"></line><line x1="0" y1="82.43446144690881" x2="300.007999420166" y2="82.43446144690881" fill="rgb(0, 0, 0)" stroke="rgb(60, 60, 60)" stroke-width="1px" opacity="0.25"></line><line x1="0" y1="68.69538453909067" x2="300.007999420166" y2="68.69538453909067" fill="rgb(0, 0, 0)" stroke="rgb(60, 60, 60)" stroke-width="1px" opacity="0.25"></line><line x1="0" y1="54.95630763127254" x2="300.007999420166" y2="54.95630763127254" fill="rgb(0, 0, 0)" stroke="rgb(60, 60, 60)" stroke-width="1px" opacity="0.25"></line><line x1="0" y1="41.217230723454406" x2="300.007999420166" y2="41.217230723454406" fill="rgb(0, 0, 0)" stroke="rgb(60, 60, 60)" stroke-width="1px" opacity="0.25"></line><line x1="0" y1="27.47815381563626" x2="300.007999420166" y2="27.47815381563626" fill="rgb(0, 0, 0)" stroke="rgb(60, 60, 60)" stroke-width="1px" opacity="0.25"></line><line x1="0" y1="13.739076907818117" x2="300.007999420166" y2="13.739076907818117" fill="rgb(0, 0, 0)" stroke="rgb(60, 60, 60)" stroke-width="1px" opacity="0.25"></line><line x1="0" y1="0" x2="300.007999420166" y2="0" fill="rgb(0, 0, 0)" stroke="rgb(60, 60, 60)" stroke-width="1px" opacity="0.25"></line></g></g></g><g><g><line x1="0" y1="164.8689228938176" x2="300.007999420166" y2="164.8689228938176" fill="rgb(0, 0, 0)" stroke="rgb(153, 153, 153)" stroke-width="1.5px"></line></g></g><g><g><line x1="37.50099992752075" y1="0" x2="37.50099992752075" y2="178.60799980163574" fill="rgb(0, 0, 0)" stroke="rgb(153, 153, 153)" stroke-width="1.5px"></line></g></g><g><g><g><g><g><path style="fill: none;" stroke="rgb(0, 119, 187)" stroke-width="2px" d="M37.96976242661476,31.976461472430515L38.90728742480278,33.539327067759444L39.8448124229908,34.54885656070374L40.782337421178816,34.56396386401292L41.71986241936684,34.59727068535889L42.65738741755485,34.61697700294519L43.594912415742876,34.7168843643783L44.53243741393089,34.81692275185924L45.46996241211891,35.04114762742714L46.407487410306935,35.288157932704195L47.345012408494945,35.78791748415111L48.28253740668297,36.431347096990066L49.22006240487099,37.31379442619141L50.157587403059004,38.18765954926312L51.09511240124703,39.22528102685169L52.03263739943504,40.13684234387006L52.970162397623064,41.253616656923214L53.90768739581108,42.23193574528605L54.8452123939991,43.47247726307333L55.78273739218712,44.548253525775806L56.72026239037513,45.84436319042709L57.65778738856316,47.03320182975992L58.595312386751175,48.381079885889534L59.53283738493919,49.57456994991858L60.47036238312722,50.91946061215879L61.40788738131523,52.052128384807816L62.34541237950325,53.376972061737504L63.28293737769127,54.44740246169049L64.22046237587928,55.71749690455481L65.1579873740673,56.75103692075503L66.09551237225533,57.94584379656429L67.03303737044335,58.95682767863896L67.97056236863136,60.08259037856995L68.90808736681937,61.05900958923996L69.8456123650074,62.13574889339361L70.78313736319542,63.092029400519664L71.72066236138345,64.12568078886048L72.65818735957146,65.07728366608073L73.59571235775947,66.04279495827295L74.53323735594749,67.00199079496213L75.47076235413552,67.9127594043914L76.40828735232354,68.86516154050311L77.34581235051155,69.7528630142205L78.28333734869956,70.69746910048923L79.22086234688759,71.57252656059575L80.15838734507561,72.53133587044397L81.09591234326363,73.3953478347225L82.03343734145164,74.36994578332836L82.97096233963966,75.22975181147312L83.90848733782768,76.18496445630976L84.8460123360157,77.05666764959305L85.78353733420373,77.99446038137718L86.72106233239174,78.8814805196461L87.65858733057975,79.83076423582064L88.59611232876777,80.71363084837489L89.5336373269558,81.72152251572193L90.47116232514382,82.58440765598957L91.40868732333183,83.62538995170375L92.34621232151984,84.45767395851207L93.28373731970787,85.55360202736328L94.22126231789589,86.35451839833281L95.15878731608392,87.47822398931363L96.09631231427193,88.25122526080338L97.03383731245994,89.40431999430152L97.97136231064796,90.16887008570939L98.90888730883599,91.30990387150926L99.84641230702401,92.10646362639007L100.78393730521202,93.23193806901592L101.72146230340003,94.04471884861204L102.65898730158806,95.15866955033555L103.59651229977608,95.98152623300604L104.5340372979641,97.10014146203055L105.47156229615211,97.92593967947373L106.40908729434013,99.04266813341019L107.34661229252815,99.87099515357554L108.28413729071617,100.95083977506161L109.2216622889042,101.80622367409376L110.15918728709221,102.8651958461683L111.09671228528022,103.68583818863128L112.03423728346824,104.77915228782926L112.97176228165627,105.57588237657217L113.90928727984429,106.65522254777429L114.8468122780323,107.4285448330811L115.78433727622031,108.55921445850149L116.72186227440834,109.30467405474764L117.65938727259636,110.44261235016869L118.59691227078439,111.12853043465188L119.5344372689724,112.2481611155467L120.47196226716041,112.95876123178067L121.40948726534843,114.06089338399431L122.34701226353646,114.76888935752865L123.28453726172448,115.86680902230611L124.22206225991249,116.50474209244067L125.1595872581005,117.63303031944263L126.09711225628853,118.1953155008907L127.03463725447655,119.36102804279017L127.97216225266457,119.89698026428543L128.90968725085258,121.05481486506204L129.8472122490406,121.58675768949522L130.7847372472286,122.71775160438385L131.72226224541666,123.19423110279124L132.65978724360465,124.39285083659095L133.59731224179268,124.818167938991L134.5348372399807,125.97882615109728L135.4723622381687,126.36828469987083L136.40988723635675,127.50563665372803L137.34741223454475,127.91970189427488L138.28493723273277,129.03528059464207L139.2224622309208,129.42463759822857L140.1599872291088,130.53539454003743L141.09751222729685,130.9038037542349L142.03503722548484,132.0029681664663L142.97256222367287,132.31751912372334L143.9100872218609,133.44080870700247L144.8476122200489,133.74318734442065L145.78513721823694,134.83907938110872L146.72266221642494,135.07328844151755L147.66018721461296,136.16285847140017L148.59771221280099,136.37226102531284L149.53523721098898,137.50863519728847L150.47276220917703,137.67110585871154L151.41028720736503,138.74977615924436L152.34781220555305,138.94941563477173L153.28533720374108,139.9953032181497L154.22286220192908,140.19681964181154L155.16038720011713,141.18094645974227L156.09791219830512,141.32083150617905L157.03543719649315,142.363502400084L157.97296219468117,142.45611488630692L158.91048719286917,143.49933445178698L159.84801219105722,143.56769237874L160.78553718924522,144.58837382617608L161.72306218743324,144.66136843739497L162.66058718562127,145.60811843737054L163.59811218380926,145.65491930381236L164.53563718199732,146.60428327344115L165.4731621801853,146.71614348608313L166.41068717837334,147.5517686571099L167.34821217656136,147.58843793440704L168.28573717474936,148.47641783847595L169.2232621729374,148.5074202392066L170.1607871711254,149.33873792891254L171.09831216931343,149.3897807636513L172.03583716750146,150.19751048910544L172.97336216568945,150.22485726310296L173.9108871638775,150.99228010060844L174.8484121620655,151.0087664530705L175.78593716025352,151.74682962891941L176.72346215844155,151.7574804087784L177.66098715662955,152.47350909795452L178.5985121548176,152.47254278085214L179.5360371530056,153.16494419796211L180.47356215119362,153.19194866640981L181.41108714938164,153.8891775744677L182.34861214756964,153.8303206738044L183.2861371457577,154.49345005292727L184.2236621439457,154.4648093967079L185.1611871421337,155.07569787166761L186.09871214032174,155.12343066087428L187.03623713850973,155.6291215977217L187.9737621366978,155.65458323445677L188.91128713488578,156.1883325805237L189.8488121330738,156.17665488401522L190.78633713126183,156.7061237728837L191.72386212944983,156.68249650081756L192.66138712763788,157.19718319475797L193.59891212582588,157.17061520683194L194.5364371240139,157.67247363178174L195.47396212220193,157.67911910914265L196.41148712038992,158.14150757502398L197.34901211857797,158.09266802516993L198.28653711676597,158.53332336428838L199.224062114954,158.51816324110368L200.16158711314202,158.92784156578824L201.09911211133002,158.95687652852016L202.03663710951807,159.27115888237927L202.97416210770606,159.31535519666505L203.9116871058941,159.70968955224163L204.8492121040821,159.67736460734122L205.7867371022701,160.03295906460932L206.72426210045816,160.00491908092775L207.66178709864616,160.33989536120828L208.59931209683418,160.35314250409536L209.5368370950222,160.6673355964594L210.4743620932102,160.67322276056876L211.41188709139826,160.95775319354075L212.34941208958625,160.98079248621747L213.28693708777428,161.2500841803761L214.2244620859623,161.26088277399526L215.1619870841503,161.54517715535303L216.09951208233835,161.52949395161824L217.03703708052635,161.77611240712113L217.97456207871437,161.80765467611425L218.9120870769024,162.06087520659975L219.8496120750904,162.0815717944878L220.78713707327844,162.30588142753032L221.72466207146644,162.32843408127647L222.66218706965446,162.53610115424064L223.5997120678425,162.5582732182636L224.53723706603049,162.74823478233674L225.47476206421854,162.7804721035677L226.41228706240653,162.97101366263044L227.34981206059456,163.006845601591L228.28733705878258,163.17409769011707L229.22486205697058,163.1999271210628L230.16238705515863,163.3684257995966L231.09991205334663,163.4053626566507L232.03743705153465,163.5528904115089L232.97496204972268,163.60004044189526L233.91248704791067,163.74767956889409L234.85001204609873,163.79079143790628L235.78753704428672,163.92162391517468L236.72506204247475,163.96436891125308L237.66258704066277,164.08513285566227L238.60011203885077,164.13425887144967L239.53763703703882,164.2336085020849L240.47516203522682,164.281533479889L241.41268703341484,164.3659606255973L242.35021203160287,164.41371097024708L243.28773702979086,164.47351773298374L244.2252620279789,164.4647253477661L245.1627870261669,164.55245788143992L246.10031202435493,164.58740849109196L247.03783702254296,164.6341178952106L247.97536202073096,164.64441620988288L248.912887018919,164.67054413454375L249.850412017107,164.67502397141763L250.78793701529503,164.68935268058797L251.72546201348305,164.69514912451388L252.66298701167105,164.70683709581888L253.6005120098591,164.70875505357085L254.5380370080471,164.71647760599015L255.47556200623512,164.71911605345875L256.4130870044232,164.72583307052994L257.3506120026112,164.72839850680433L258.28813700079917,164.73531439173044L259.22566199898716,164.73845673927596L260.1631869971752,164.74443855179115L261.10071199536327,164.7467273746768L262.03823699355127,164.75054541484977L262.97576199173926,164.75272161163457L263.91328698992726,164.7565174515934L264.8508119881153,164.75891007167627L265.78833698630336,164.76434681455314L266.72586198449136,164.76514743616667L267.66338698267936,164.77149159200422L268.60091198086735,164.77317718964733L269.5384369790554,164.7754452454162L270.47596197724346,164.77750861137196L271.41348697543145,164.7809928742042L272.35101197361945,164.78192166846623L273.28853697180745,164.78405791766107L274.2260619699955,164.7867910711153L275.16358696818355,164.78950479458382L276.10111196637155,164.790794914925L277.03863696455954,164.7887398404613L277.97616196274754,164.79214893605547" fill="none"></path></g></g></g></g></g></g><g transform="translate(30, 178)" clip-path="url(#clip_1)"><clipPath id="clip_1"><rect width="300" height="21"></rect></clipPath><g><g><line x1="0" y1="0" x2="0" y2="5" style="visibility: inherit;" fill="rgb(0, 0, 0)" stroke="rgb(204, 204, 204)" stroke-width="1px"></line><line x1="37.50099992752075" y1="0" x2="37.50099992752075" y2="5" style="visibility: inherit;" fill="rgb(0, 0, 0)" stroke="rgb(204, 204, 204)" stroke-width="1px"></line><line x1="75.0019998550415" y1="0" x2="75.0019998550415" y2="5" style="visibility: inherit;" fill="rgb(0, 0, 0)" stroke="rgb(204, 204, 204)" stroke-width="1px"></line><line x1="112.50299978256226" y1="0" x2="112.50299978256226" y2="5" style="visibility: inherit;" fill="rgb(0, 0, 0)" stroke="rgb(204, 204, 204)" stroke-width="1px"></line><line x1="150.003999710083" y1="0" x2="150.003999710083" y2="5" style="visibility: inherit;" fill="rgb(0, 0, 0)" stroke="rgb(204, 204, 204)" stroke-width="1px"></line><line x1="187.50499963760376" y1="0" x2="187.50499963760376" y2="5" style="visibility: inherit;" fill="rgb(0, 0, 0)" stroke="rgb(204, 204, 204)" stroke-width="1px"></line><line x1="225.0059995651245" y1="0" x2="225.0059995651245" y2="5" style="visibility: inherit;" fill="rgb(0, 0, 0)" stroke="rgb(204, 204, 204)" stroke-width="1px"></line><line x1="262.50699949264526" y1="0" x2="262.50699949264526" y2="5" style="visibility: inherit;" fill="rgb(0, 0, 0)" stroke="rgb(204, 204, 204)" stroke-width="1px"></line><line x1="300.007999420166" y1="0" x2="300.007999420166" y2="5" style="visibility: inherit;" fill="rgb(0, 0, 0)" stroke="rgb(204, 204, 204)" stroke-width="1px"></line></g><g transform="translate(0, 8)"><text style="text-anchor: middle; visibility: hidden; font-family: &quot;Helvetica Neue&quot;, sans-serif; font-size: 12px; font-weight: 200;" x="0" y="0" dx="0em" dy="0.95em" fill="rgb(50, 49, 63)" stroke="none" stroke-width="1px">-200k</text><text style="text-anchor: middle; visibility: inherit; font-family: &quot;Helvetica Neue&quot;, sans-serif; font-size: 12px; font-weight: 200;" x="37.50099992752075" y="0" dx="0em" dy="0.95em" fill="rgb(50, 49, 63)" stroke="none" stroke-width="1px">0</text><text style="text-anchor: middle; visibility: inherit; font-family: &quot;Helvetica Neue&quot;, sans-serif; font-size: 12px; font-weight: 200;" x="75.0019998550415" y="0" dx="0em" dy="0.95em" fill="rgb(50, 49, 63)" stroke="none" stroke-width="1px">200k</text><text style="text-anchor: middle; visibility: inherit; font-family: &quot;Helvetica Neue&quot;, sans-serif; font-size: 12px; font-weight: 200;" x="112.50299978256226" y="0" dx="0em" dy="0.95em" fill="rgb(50, 49, 63)" stroke="none" stroke-width="1px">400k</text><text style="text-anchor: middle; visibility: inherit; font-family: &quot;Helvetica Neue&quot;, sans-serif; font-size: 12px; font-weight: 200;" x="150.003999710083" y="0" dx="0em" dy="0.95em" fill="rgb(50, 49, 63)" stroke="none" stroke-width="1px">600k</text><text style="text-anchor: middle; visibility: inherit; font-family: &quot;Helvetica Neue&quot;, sans-serif; font-size: 12px; font-weight: 200;" x="187.50499963760376" y="0" dx="0em" dy="0.95em" fill="rgb(50, 49, 63)" stroke="none" stroke-width="1px">800k</text><text style="text-anchor: middle; visibility: inherit; font-family: &quot;Helvetica Neue&quot;, sans-serif; font-size: 12px; font-weight: 200;" x="225.0059995651245" y="0" dx="0em" dy="0.95em" fill="rgb(50, 49, 63)" stroke="none" stroke-width="1px">1M</text><text style="text-anchor: middle; visibility: inherit; font-family: &quot;Helvetica Neue&quot;, sans-serif; font-size: 12px; font-weight: 200;" x="262.50699949264526" y="0" dx="0em" dy="0.95em" fill="rgb(50, 49, 63)" stroke="none" stroke-width="1px">1.2M</text><text style="text-anchor: middle; visibility: hidden; font-family: &quot;Helvetica Neue&quot;, sans-serif; font-size: 12px; font-weight: 200;" x="300.007999420166" y="0" dx="0em" dy="0.95em" fill="rgb(50, 49, 63)" stroke="none" stroke-width="1px">1.4M</text></g><line x1="0" y1="0" x2="300.007999420166" y2="0" fill="rgb(0, 0, 0)" stroke="rgb(204, 204, 204)" stroke-width="1px"></line></g></g></g></g></svg>