<svg viewBox="0 0 330 200" xmlns="http://www.w3.org/2000/svg"><g><g><g><g><g><line x1="29.992000579833984" y1="178.60799980163574" x2="24.992000579833984" y2="178.60799980163574" style="visibility: inherit;" fill="rgb(0, 0, 0)" stroke="rgb(204, 204, 204)" stroke-width="1px"></line><line x1="29.992000579833984" y1="164.8689228938176" x2="24.992000579833984" y2="164.8689228938176" style="visibility: inherit;" fill="rgb(0, 0, 0)" stroke="rgb(204, 204, 204)" stroke-width="1px"></line><line x1="29.992000579833984" y1="151.12984598599948" x2="24.992000579833984" y2="151.12984598599948" style="visibility: inherit;" fill="rgb(0, 0, 0)" stroke="rgb(204, 204, 204)" stroke-width="1px"></line><line x1="29.992000579833984" y1="137.39076907818134" x2="24.992000579833984" y2="137.39076907818134" style="visibility: inherit;" fill="rgb(0, 0, 0)" stroke="rgb(204, 204, 204)" stroke-width="1px"></line><line x1="29.992000579833984" y1="123.6516921703632" x2="24.992000579833984" y2="123.6516921703632" style="visibility: inherit;" fill="rgb(0, 0, 0)" stroke="rgb(204, 204, 204)" stroke-width="1px"></line><line x1="29.992000579833984" y1="109.91261526254507" x2="24.992000579833984" y2="109.91261526254507" style="visibility: inherit;" fill="rgb(0, 0, 0)" stroke="rgb(204, 204, 204)" stroke-width="1px"></line><line x1="29.992000579833984" y1="96.17353835472693" x2="24.992000579833984" y2="96.17353835472693" style="visibility: inherit;" fill="rgb(0, 0, 0)" stroke="rgb(204, 204, 204)" stroke-width="1px"></line><line x1="29.992000579833984" y1="82.43446144690881" x2="24.992000579833984" y2="82.43446144690881" style="visibility: inherit;" fill="rgb(0, 0, 0)" stroke="rgb(204, 204, 204)" stroke-width="1px"></line><line x1="29.992000579833984" y1="68.69538453909067" x2="24.992000579833984" y2="68.69538453909067" style="visibility: inherit;" fill="rgb(0, 0, 0)" stroke="rgb(204, 204, 204)" stroke-width="1px"></line><line x1="29.992000579833984" y1="54.95630763127254" x2="24.992000579833984" y2="54.95630763127254" style="visibility: inherit;" fill="rgb(0, 0, 0)" stroke="rgb(204, 204, 204)" stroke-width="1px"></line><line x1="29.992000579833984" y1="41.217230723454406" x2="24.992000579833984" y2="41.217230723454406" style="visibility: inherit;" fill="rgb(0, 0, 0)" stroke="rgb(204, 204, 204)" stroke-width="1px"></line><line x1="29.992000579833984" y1="27.47815381563626" x2="24.992000579833984" y2="27.47815381563626" style="visibility: inherit;" fill="rgb(0, 0, 0)" stroke="rgb(204, 204, 204)" stroke-width="1px"></line><line x1="29.992000579833984" y1="13.739076907818117" x2="24.992000579833984" y2="13.739076907818117" style="visibility: inherit;" fill="rgb(0, 0, 0)" stroke="rgb(204, 204, 204)" stroke-width="1px"></line><line x1="29.992000579833984" y1="0" x2="24.992000579833984" y2="0" style="visibility: inherit;" fill="rgb(0, 0, 0)" stroke="rgb(204, 204, 204)" stroke-width="1px"></line></g><g transform="translate(19.992000579833984, 0)"><text style="text-anchor: end; visibility: hidden; font-family: &quot;Helvetica Neue&quot;, sans-serif; font-size: 12px; font-weight: 200;" x="0" y="178.60799980163574" dx="0em" dy="0.3em" fill="rgb(50, 49, 63)" stroke="none" stroke-width="1px">-1</text><text style="text-anchor: end; visibility: inherit; font-family: &quot;Helvetica Neue&quot;, sans-serif; font-size: 12px; font-weight: 200;" x="0" y="164.8689228938176" dx="0em" dy="0.3em" fill="rgb(50, 49, 63)" stroke="none" stroke-width="1px">0</text><text style="text-anchor: end; visibility: hidden; font-family: &quot;Helvetica Neue&quot;, sans-serif; font-size: 12px; font-weight: 200;" x="0" y="151.12984598599948" dx="0em" dy="0.3em" fill="rgb(50, 49, 63)" stroke="none" stroke-width="1px">1</text><text style="text-anchor: end; visibility: inherit; font-family: &quot;Helvetica Neue&quot;, sans-serif; font-size: 12px; font-weight: 200;" x="0" y="137.39076907818134" dx="0em" dy="0.3em" fill="rgb(50, 49, 63)" stroke="none" stroke-width="1px">2</text><text style="text-anchor: end; visibility: hidden; font-family: &quot;Helvetica Neue&quot;, sans-serif; font-size: 12px; font-weight: 200;" x="0" y="123.6516921703632" dx="0em" dy="0.3em" fill="rgb(50, 49, 63)" stroke="none" stroke-width="1px">3</text><text style="text-anchor: end; visibility: inherit; font-family: &quot;Helvetica Neue&quot;, sans-serif; font-size: 12px; font-weight: 200;" x="0" y="109.91261526254507" dx="0em" dy="0.3em" fill="rgb(50, 49, 63)" stroke="none" stroke-width="1px">4</text><text style="text-anchor: end; visibility: hidden; font-family: &quot;Helvetica Neue&quot;, sans-serif; font-size: 12px; font-weight: 200;" x="0" y="96.17353835472693" dx="0em" dy="0.3em" fill="rgb(50, 49, 63)" stroke="none" stroke-width="1px">5</text><text style="text-anchor: end; visibility: inherit; font-family: &quot;Helvetica Neue&quot;, sans-serif; font-size: 12px; font-weight: 200;" x="0" y="82.43446144690881" dx="0em" dy="0.3em" fill="rgb(50, 49, 63)" stroke="none" stroke-width="1px">6</text><text style="text-anchor: end; visibility: hidden; font-family: &quot;Helvetica Neue&quot;, sans-serif; font-size: 12px; font-weight: 200;" x="0" y="68.69538453909067" dx="0em" dy="0.3em" fill="rgb(50, 49, 63)" stroke="none" stroke-width="1px">7</text><text style="text-anchor: end; visibility: inherit; font-family: &quot;Helvetica Neue&quot;, sans-serif; font-size: 12px; font-weight: 200;" x="0" y="54.95630763127254" dx="0em" dy="0.3em" fill="rgb(50, 49, 63)" stroke="none" stroke-width="1px">8</text><text style="text-anchor: end; visibility: hidden; font-family: &quot;Helvetica Neue&quot;, sans-serif; font-size: 12px; font-weight: 200;" x="0" y="41.217230723454406" dx="0em" dy="0.3em" fill="rgb(50, 49, 63)" stroke="none" stroke-width="1px">9</text><text style="text-anchor: end; visibility: inherit; font-family: &quot;Helvetica Neue&quot;, sans-serif; font-size: 12px; font-weight: 200;" x="0" y="27.47815381563626" dx="0em" dy="0.3em" fill="rgb(50, 49, 63)" stroke="none" stroke-width="1px">10</text><text style="text-anchor: end; visibility: hidden; font-family: &quot;Helvetica Neue&quot;, sans-serif; font-size: 12px; font-weight: 200;" x="0" y="13.739076907818117" dx="0em" dy="0.3em" fill="rgb(50, 49, 63)" stroke="none" stroke-width="1px">11</text><text style="text-anchor: end; visibility: hidden; font-family: &quot;Helvetica Neue&quot;, sans-serif; font-size: 12px; font-weight: 200;" x="0" y="0" dx="0em" dy="0.3em" fill="rgb(50, 49, 63)" stroke="none" stroke-width="1px">12</text></g><line x1="29.992000579833984" y1="0" x2="29.992000579833984" y2="178.60799980163574" fill="rgb(0, 0, 0)" stroke="rgb(204, 204, 204)" stroke-width="1px"></line></g></g><g transform="translate(30, 0)" clip-path="url(#clip_0)"><clipPath id="clip_0"><rect width="300" height="178"></rect></clipPath><g><g><g><line x1="0" y1="0" x2="0" y2="178.60799980163574" fill="rgb(0, 0, 0)" stroke="rgb(60, 60, 60)" stroke-width="1px" opacity="0.25"></line><line x1="37.50099992752075" y1="0" x2="37.50099992752075" y2="178.60799980163574" fill="rgb(0, 0, 0)" stroke="rgb(60, 60, 60)" stroke-width="1px" opacity="0.25"></line><line x1="75.0019998550415" y1="0" x2="75.0019998550415" y2="178.60799980163574" fill="rgb(0, 0, 0)" stroke="rgb(60, 60, 60)" stroke-width="1px" opacity="0.25"></line><line x1="112.50299978256226" y1="0" x2="112.50299978256226" y2="178.60799980163574" fill="rgb(0, 0, 0)" stroke="rgb(60, 60, 60)" stroke-width="1px" opacity="0.25"></line><line x1="150.003999710083" y1="0" x2="150.003999710083" y2="178.60799980163574" fill="rgb(0, 0, 0)" stroke="rgb(60, 60, 60)" stroke-width="1px" opacity="0.25"></line><line x1="187.50499963760376" y1="0" x2="187.50499963760376" y2="178.60799980163574" fill="rgb(0, 0, 0)" stroke="rgb(60, 60, 60)" stroke-width="1px" opacity="0.25"></line><line x1="225.0059995651245" y1="0" x2="225.0059995651245" y2="178.60799980163574" fill="rgb(0, 0, 0)" stroke="rgb(60, 60, 60)" stroke-width="1px" opacity="0.25"></line><line x1="262.50699949264526" y1="0" x2="262.50699949264526" y2="178.60799980163574" fill="rgb(0, 0, 0)" stroke="rgb(60, 60, 60)" stroke-width="1px" opacity="0.25"></line><line x1="300.007999420166" y1="0" x2="300.007999420166" y2="178.60799980163574" fill="rgb(0, 0, 0)" stroke="rgb(60, 60, 60)" stroke-width="1px" opacity="0.25"></line></g><g><line x1="0" y1="178.60799980163574" x2="300.007999420166" y2="178.60799980163574" fill="rgb(0, 0, 0)" stroke="rgb(60, 60, 60)" stroke-width="1px" opacity="0.25"></line><line x1="0" y1="164.8689228938176" x2="300.007999420166" y2="164.8689228938176" fill="rgb(0, 0, 0)" stroke="rgb(60, 60, 60)" stroke-width="1px" opacity="0.25"></line><line x1="0" y1="151.12984598599948" x2="300.007999420166" y2="151.12984598599948" fill="rgb(0, 0, 0)" stroke="rgb(60, 60, 60)" stroke-width="1px" opacity="0.25"></line><line x1="0" y1="137.39076907818134" x2="300.007999420166" y2="137.39076907818134" fill="rgb(0, 0, 0)" stroke="rgb(60, 60, 60)" stroke-width="1px" opacity="0.25"></line><line x1="0" y1="123.6516921703632" x2="300.007999420166" y2="123.6516921703632" fill="rgb(0, 0, 0)" stroke="rgb(60, 60, 60)" stroke-width="1px" opacity="0.25"></line><line x1="0" y1="109.91261526254507" x2="300.007999420166" y2="109.91261526254507" fill="rgb(0, 0, 0)" stroke="rgb(60, 60, 60)" stroke-width="1px" opacity="0.25"></line><line x1="0" y1="96.17353835472693" x2="300.007999420166" y2="96.17353835472693" fill="rgb(0, 0, 0)" stroke="rgb(60, 60, 60)" stroke-width="1px" opacity="0.25"></line><line x1="0" y1="82.43446144690881" x2="300.007999420166" y2="82.43446144690881" fill="rgb(0, 0, 0)" stroke="rgb(60, 60, 60)" stroke-width="1px" opacity="0.25"></line><line x1="0" y1="68.69538453909067" x2="300.007999420166" y2="68.69538453909067" fill="rgb(0, 0, 0)" stroke="rgb(60, 60, 60)" stroke-width="1px" opacity="0.25"></line><line x1="0" y1="54.95630763127254" x2="300.007999420166" y2="54.95630763127254" fill="rgb(0, 0, 0)" stroke="rgb(60, 60, 60)" stroke-width="1px" opacity="0.25"></line><line x1="0" y1="41.217230723454406" x2="300.007999420166" y2="41.217230723454406" fill="rgb(0, 0, 0)" stroke="rgb(60, 60, 60)" stroke-width="1px" opacity="0.25"></line><line x1="0" y1="27.47815381563626" x2="300.007999420166" y2="27.47815381563626" fill="rgb(0, 0, 0)" stroke="rgb(60, 60, 60)" stroke-width="1px" opacity="0.25"></line><line x1="0" y1="13.739076907818117" x2="300.007999420166" y2="13.739076907818117" fill="rgb(0, 0, 0)" stroke="rgb(60, 60, 60)" stroke-width="1px" opacity="0.25"></line><line x1="0" y1="0" x2="300.007999420166" y2="0" fill="rgb(0, 0, 0)" stroke="rgb(60, 60, 60)" stroke-width="1px" opacity="0.25"></line></g></g></g><g><g><line x1="0" y1="164.8689228938176" x2="300.007999420166" y2="164.8689228938176" fill="rgb(0, 0, 0)" stroke="rgb(153, 153, 153)" stroke-width="1.5px"></line></g></g><g><g><line x1="37.50099992752075" y1="0" x2="37.50099992752075" y2="178.60799980163574" fill="rgb(0, 0, 0)" stroke="rgb(153, 153, 153)" stroke-width="1.5px"></line></g></g><g><g><g><g><g><path style="fill: none;" stroke="rgb(0, 119, 187)" stroke-width="2px" d="M37.96976242661476,31.77676467300725L38.90728742480278,33.3564278076617L39.8448124229908,34.35479388133507L40.782337421178816,34.38270242951248L41.71986241936684,34.40335213464277L42.65738741755485,34.435781081468605L43.594912415742876,34.52333268659598L44.53243741393089,34.636133011130795L45.46996241211891,34.84855243979359L46.407487410306935,35.10859983682488L47.345012408494945,35.597235276815184L48.28253740668297,36.253872315270485L49.22006240487099,37.1254968929251L50.157587403059004,38.01213705565547L51.09511240124703,39.03859511397309L52.03263739943504,39.96253839250676L52.970162397623064,41.06830651754635L53.90768739581108,42.058719310119386L54.8452123939991,43.28842497375513L55.78273739218712,44.37603288857224L56.72026239037513,45.66134600688633L57.65778738856316,46.86208181135771L58.595312386751175,48.19917642375492L59.53283738493919,49.40432780603652L60.47036238312722,50.738500537568214L61.40788738131523,51.882737910236344L62.34541237950325,53.196889861667074L63.28293737769127,54.27888986163914L64.22046237587928,55.53806983472329L65.1579873740673,56.58317289964019L66.09551237225533,57.76711771608839L67.03303737044335,58.78948776171525L67.97056236863136,59.90448012051861L68.90808736681937,60.89184655748075L69.8456123650074,61.95828066297641L70.78313736319542,62.92539047295156L71.72066236138345,63.94914284338252L72.65818735957146,64.91104436795838L73.59571235775947,65.86702351517454L74.53323735594749,66.8362821523333L75.47076235413552,67.73747275766975L76.40828735232354,68.69967564215551L77.34581235051155,69.57794979173502L78.28333734869956,70.5320552664679L79.22086234688759,71.398012967556L80.15838734507561,72.36600720335369L81.09591234326363,73.22119456331417L82.03343734145164,74.20468918056436L82.97096233963966,75.05648296588731L83.90848733782768,76.01985198219832L84.8460123360157,76.88387049777926L85.78353733420373,77.82903344475108L86.72106233239174,78.7092860876521L87.65858733057975,79.66537005570648L88.59611232876777,80.54196707187441L89.5336373269558,81.5566524397989L90.47116232514382,82.41337280451842L91.40868732333183,83.46080158178343L92.34621232151984,84.28728113467507L93.28373731970787,85.38970154419383L94.22126231789589,86.18493793599205L95.15878731608392,87.31493277726636L96.09631231427193,88.08233923651585L97.03383731245994,89.24179528463377L97.97136231064796,90.00111088543277L98.90888730883599,91.14787706082308L99.84641230702401,91.93998193007933L100.78393730521202,93.0702257208444L101.72146230340003,93.87908882161187L102.65898730158806,94.99777611496268L103.59651229977608,95.81716715866935L104.5340372979641,96.93979833605835L105.47156229615211,97.76221608146876L106.40908729434013,98.88340597233218L107.34661229252815,99.70859491865318L108.28413729071617,100.79302545181159L109.2216622889042,101.64432133815296L110.15918728709221,102.70867868079131L111.09671228528022,103.52503647149184L112.03423728346824,104.62280545631438L112.97176228165627,105.41641712512012L113.90928727984429,106.50077559395224L114.8468122780323,107.27065189420242L115.78433727622031,108.40570434092108L116.72186227440834,109.1475869260628L117.65938727259636,110.29096607811796L118.59691227078439,110.97389349306054L119.5344372689724,112.09714049287413L120.47196226716041,112.80501199166306L121.40948726534843,113.91185780594564L122.34701226353646,114.61763616362126L123.28453726172448,115.71855632489294L124.22206225991249,116.35416695833055L125.1595872581005,117.48611081206562L126.09711225628853,118.04549376655534L127.03463725447655,119.2156349888698L127.97216225266457,119.75022453946815L128.90968725085258,120.90977558147068L129.8472122490406,121.4413875651332L130.7847372472286,122.57565385556518L131.72226224541666,123.04973230164698L132.65978724360465,124.25091687033199L133.59731224179268,124.67555918858596L134.5348372399807,125.83885429990386L135.4723622381687,126.22643262489174L136.40988723635675,127.36750571850595L137.34741223454475,127.77996261431628L138.28493723273277,128.89885627369233L139.2224622309208,129.28684733073072L140.1599872291088,130.40083734026854L141.09751222729685,130.76721237507425L142.03503722548484,131.87132957191176L142.97256222367287,132.182414890205L143.9100872218609,133.30891788730594L144.8476122200489,133.61026141894666L145.78513721823694,134.71044783435076L146.72266221642494,134.94196758512888L147.66018721461296,136.03499342702173L148.59771221280099,136.24296452136238L149.53523721098898,137.38394917239432L150.47276220917703,137.54443970267027L151.41028720736503,138.62619075315158L152.34781220555305,138.8234029711438L153.28533720374108,139.87578453301492L154.22286220192908,140.07372066992113L155.16038720011713,141.06223194697574L156.09791219830512,141.19966189284222L157.03543719649315,142.24796690680176L157.97296219468117,142.33773776561344L158.91048719286917,143.3845277908955L159.84801219105722,143.45055672984924L160.78553718924522,144.47738493675186L161.72306218743324,144.54799651172672L162.66058718562127,145.4973047952852L163.59811218380926,145.54180451676288L164.53563718199732,146.4972579219623L165.4731621801853,146.6074229851111L166.41068717837334,147.44803533508156L167.34821217656136,147.48286369640738L168.28573717474936,148.37325447975547L169.2232621729374,148.40546395795127L170.1607871711254,149.23921709432037L171.09831216931343,149.29107556620653L172.03583716750146,150.10114738226477L172.97336216568945,150.12836476804011L173.9108871638775,150.8983458891285L174.8484121620655,150.9134417276585L175.78593716025352,151.65635041053693L176.72346215844155,151.6677226525715L177.66098715662955,152.38553575273585L178.5985121548176,152.38702289837818L179.5360371530056,153.08073293814036L180.47356215119362,153.10810673626023L181.41108714938164,153.80826817105003L182.34861214756964,153.75091561319783L183.2861371457577,154.41618890602751L184.2236621439457,154.38787990949157L185.1611871421337,155.00185896135332L186.09871214032174,155.05152192802638L187.03623713850973,155.55753305977805L187.9737621366978,155.58643904374418L188.91128713488578,156.1211555258263L189.8488121330738,156.11052603770005L190.78633713126183,156.64165895737537L191.72386212944983,156.6194377585845L192.66138712763788,157.1347124319143L193.59891212582588,157.1125657541881L194.5364371240139,157.61471407426862L195.47396212220193,157.62307763068105L196.41148712038992,158.08647458767388L197.34901211857797,158.03952140345152L198.28653711676597,158.4818727109759L199.224062114954,158.46821037929993L200.16158711314202,158.8811123542163L201.09911211133002,158.9093259474112L202.03663710951807,159.22745923870585L202.97416210770606,159.27236555038803L203.9116871058941,159.66948175274158L204.8492121040821,159.63731158236013L205.7867371022701,159.99443494982324L206.72426210045816,159.96813843149L207.66178709864616,160.30530407513766L208.59931209683418,160.31941558048368L209.5368370950222,160.63520227715387L210.4743620932102,160.64160289958798L211.41188709139826,160.92883983935943L212.34941208958625,160.95209450610218L213.28693708777428,161.22357802036638L214.2244620859623,161.23358144965806L215.1619870841503,161.5217361859486L216.09951208233835,161.50528361363948L217.03703708052635,161.75462229273123L217.97456207871437,161.78521667015994L218.9120870769024,162.04195627366934L219.8496120750904,162.06240841608698L220.78713707327844,162.28815687891674L221.72466207146644,162.31119473849606L222.66218706965446,162.52112897154325L223.5997120678425,162.54363515198804L224.53723706603049,162.7347953996702L225.47476206421854,162.76632333768933L226.41228706240653,162.95951817421965L227.34981206059456,162.99488415179778L228.28733705878258,163.1639547385573L229.22486205697058,163.18936908307825L230.16238705515863,163.35957058841268L231.09991205334663,163.39611098930817L232.03743705153465,163.54410317008728L232.97496204972268,163.5925429881315L233.91248704791067,163.74141427179995L234.85001204609873,163.78427391567016L235.78753704428672,163.91498887895193L236.72506204247475,163.95862925381155L237.66258704066277,164.08075121155113L238.60011203885077,164.1301764887844L239.53763703703882,164.22877609766016L240.47516203522682,164.27799204030927L241.41268703341484,164.36326563475905L242.35021203160287,164.41126943292002L243.28773702979086,164.470849919814L244.2252620279789,164.46206306225773L245.1627870261669,164.55035780515885L246.10031202435493,164.58576879734989L247.03783702254296,164.63192853184344L247.97536202073096,164.6431195126483L248.912887018919,164.66964789846318L249.850412017107,164.67322737910152L250.78793701529503,164.68618960431223L251.72546201348305,164.69379947944867L252.66298701167105,164.7058722118139L253.6005120098591,164.70745113966723L254.5380370080471,164.713948828859L255.47556200623512,164.71708655722452L256.4130870044232,164.72490315666056L257.3506120026112,164.72670590361815L258.28813700079917,164.73242686681593L259.22566199898716,164.73662721131075L260.1631869971752,164.74358419542295L261.10071199536327,164.74598019352112L262.03823699355127,164.7479407603296L262.97576199173926,164.75076461477403L263.91328698992726,164.75563727388104L264.8508119881153,164.7578206233573L265.78833698630336,164.76104454229488L266.72586198449136,164.76274234045914L267.66338698267936,164.7708493020621L268.60091198086735,164.77229417133117L269.5384369790554,164.7728861237272L270.47596197724346,164.7757750817391L271.41348697543145,164.78026022235292L272.35101197361945,164.7810518359257L273.28853697180745,164.78099556126182L274.2260619699955,164.78421102236564L275.16358696818355,164.78886284372277L276.10111196637155,164.78971432749842L277.03863696455954,164.78620150508232L277.97616196274754,164.78968771923022" fill="none"></path></g></g></g></g></g></g><g transform="translate(30, 178)" clip-path="url(#clip_1)"><clipPath id="clip_1"><rect width="300" height="21"></rect></clipPath><g><g><line x1="0" y1="0" x2="0" y2="5" style="visibility: inherit;" fill="rgb(0, 0, 0)" stroke="rgb(204, 204, 204)" stroke-width="1px"></line><line x1="37.50099992752075" y1="0" x2="37.50099992752075" y2="5" style="visibility: inherit;" fill="rgb(0, 0, 0)" stroke="rgb(204, 204, 204)" stroke-width="1px"></line><line x1="75.0019998550415" y1="0" x2="75.0019998550415" y2="5" style="visibility: inherit;" fill="rgb(0, 0, 0)" stroke="rgb(204, 204, 204)" stroke-width="1px"></line><line x1="112.50299978256226" y1="0" x2="112.50299978256226" y2="5" style="visibility: inherit;" fill="rgb(0, 0, 0)" stroke="rgb(204, 204, 204)" stroke-width="1px"></line><line x1="150.003999710083" y1="0" x2="150.003999710083" y2="5" style="visibility: inherit;" fill="rgb(0, 0, 0)" stroke="rgb(204, 204, 204)" stroke-width="1px"></line><line x1="187.50499963760376" y1="0" x2="187.50499963760376" y2="5" style="visibility: inherit;" fill="rgb(0, 0, 0)" stroke="rgb(204, 204, 204)" stroke-width="1px"></line><line x1="225.0059995651245" y1="0" x2="225.0059995651245" y2="5" style="visibility: inherit;" fill="rgb(0, 0, 0)" stroke="rgb(204, 204, 204)" stroke-width="1px"></line><line x1="262.50699949264526" y1="0" x2="262.50699949264526" y2="5" style="visibility: inherit;" fill="rgb(0, 0, 0)" stroke="rgb(204, 204, 204)" stroke-width="1px"></line><line x1="300.007999420166" y1="0" x2="300.007999420166" y2="5" style="visibility: inherit;" fill="rgb(0, 0, 0)" stroke="rgb(204, 204, 204)" stroke-width="1px"></line></g><g transform="translate(0, 8)"><text style="text-anchor: middle; visibility: hidden; font-family: &quot;Helvetica Neue&quot;, sans-serif; font-size: 12px; font-weight: 200;" x="0" y="0" dx="0em" dy="0.95em" fill="rgb(50, 49, 63)" stroke="none" stroke-width="1px">-200k</text><text style="text-anchor: middle; visibility: hidden; font-family: &quot;Helvetica Neue&quot;, sans-serif; font-size: 12px; font-weight: 200;" x="37.50099992752075" y="0" dx="0em" dy="0.95em" fill="rgb(50, 49, 63)" stroke="none" stroke-width="1px">0</text><text style="text-anchor: middle; visibility: hidden; font-family: &quot;Helvetica Neue&quot;, sans-serif; font-size: 12px; font-weight: 200;" x="75.0019998550415" y="0" dx="0em" dy="0.95em" fill="rgb(50, 49, 63)" stroke="none" stroke-width="1px">200k</text><text style="text-anchor: middle; visibility: hidden; font-family: &quot;Helvetica Neue&quot;, sans-serif; font-size: 12px; font-weight: 200;" x="112.50299978256226" y="0" dx="0em" dy="0.95em" fill="rgb(50, 49, 63)" stroke="none" stroke-width="1px">400k</text><text style="text-anchor: middle; visibility: hidden; font-family: &quot;Helvetica Neue&quot;, sans-serif; font-size: 12px; font-weight: 200;" x="150.003999710083" y="0" dx="0em" dy="0.95em" fill="rgb(50, 49, 63)" stroke="none" stroke-width="1px">600k</text><text style="text-anchor: middle; visibility: hidden; font-family: &quot;Helvetica Neue&quot;, sans-serif; font-size: 12px; font-weight: 200;" x="187.50499963760376" y="0" dx="0em" dy="0.95em" fill="rgb(50, 49, 63)" stroke="none" stroke-width="1px">800k</text><text style="text-anchor: middle; visibility: hidden; font-family: &quot;Helvetica Neue&quot;, sans-serif; font-size: 12px; font-weight: 200;" x="225.0059995651245" y="0" dx="0em" dy="0.95em" fill="rgb(50, 49, 63)" stroke="none" stroke-width="1px">1M</text><text style="text-anchor: middle; visibility: hidden; font-family: &quot;Helvetica Neue&quot;, sans-serif; font-size: 12px; font-weight: 200;" x="262.50699949264526" y="0" dx="0em" dy="0.95em" fill="rgb(50, 49, 63)" stroke="none" stroke-width="1px">1.2M</text><text style="text-anchor: middle; visibility: hidden; font-family: &quot;Helvetica Neue&quot;, sans-serif; font-size: 12px; font-weight: 200;" x="300.007999420166" y="0" dx="0em" dy="0.95em" fill="rgb(50, 49, 63)" stroke="none" stroke-width="1px">1.4M</text></g><line x1="0" y1="0" x2="300.007999420166" y2="0" fill="rgb(0, 0, 0)" stroke="rgb(204, 204, 204)" stroke-width="1px"></line></g></g></g></g></svg>